<?xml version="1.0" encoding="UTF-8"?>
<!DOCTYPE svg PUBLIC "-//W3C//DTD SVG 1.1//EN" "http://www.w3.org/Graphics/SVG/1.1/DTD/svg11.dtd">
<!-- Creator: CorelDRAW -->
<svg xmlns="http://www.w3.org/2000/svg" xml:space="preserve" width="4.85417in" height="1.90624in" version="1.1" style="shape-rendering:geometricPrecision; text-rendering:geometricPrecision; image-rendering:optimizeQuality; fill-rule:evenodd; clip-rule:evenodd"
viewBox="0 0 486.02 190.86"
 xmlns:xlink="http://www.w3.org/1999/xlink"
 xmlns:xodm="http://www.corel.com/coreldraw/odm/2003">
 <defs>
  <style type="text/css">
   <![CDATA[
    .fil4 {fill:none}
    .fil1 {fill:#1600DC;fill-rule:nonzero}
    .fil0 {fill:white;fill-rule:nonzero}
    .fil2 {fill:#F0F2F9}
    .fil3 {fill:#1600DC;fill-rule:nonzero}
   ]]>
  </style>
   <clipPath id="id0">
    <path d="M-0 190.86l486.02 0 0 -190.86 -486.02 0 0 190.86z"/>
   </clipPath>
 </defs>
 <g id="Layer_x0020_1">
  <metadata id="CorelCorpID_0Corel-Layer"/>
  <g>
  </g>
  <g style="clip-path:url(#id0)">
   <g id="_2341727609168">
    <rect class="fil0" y="-0" width="486.02" height="190.86"/>
    <polygon class="fil1" points="486.02,-0 -0,-0 -0,171.05 486.02,171.05 "/>
    <path class="fil2" d="M-53.74 133.86c20.75,5.91 148.56,30.19 174.59,32.73 209.63,33.46 329.67,-42.84 631.4,-64.78 179.45,-9.54 273.04,-0.48 375.55,13.19l2.47 56.61 -1180.11 51.58 -3.9 -89.33z"/>
    <path class="fil3" d="M19.35 152.99c-3.05,-0.69 -9.04,-2.05 -11.34,-2.58 -0.97,-0.22 -2.23,-0.51 -2.79,-0.64 -0.55,-0.14 -1.69,-0.43 -2.54,-0.65l-1.7 -0.43 -0.29 -0.07 -1.17 -0.3 -1.24 -0.32c-1.29,-0.32 -2.62,-0.66 -3.17,-0.8l-1.05 -0.26c-0.27,-0.07 -1.5,-0.37 -2.41,-0.61 -0.74,0.33 -1.2,0.77 -1.37,1.32 -0.09,0.3 0.02,0.58 0.23,0.64 0.21,0.06 0.55,0.38 0.75,0.72 0.09,0.15 0.21,0.29 0.33,0.42 1.04,0.27 2.58,0.68 4.31,1.13l6.54 1.7c0.53,0.13 1.75,0.42 2.71,0.64 0.96,0.23 2.3,0.54 2.98,0.71 2.14,0.51 3.56,0.85 5.21,1.24 0.89,0.2 2.47,0.61 3.63,0.84 1.82,0.39 3.46,0.74 4.97,1.06 3.37,0.71 6.41,1.39 9.33,1.96 2.94,0.56 5.69,1.08 8.34,1.58 2.65,0.5 5.16,1 7.75,1.41 2.72,0.46 6.65,1.12 10.78,1.81 4.17,0.65 8.59,1.27 12.19,1.81 1.57,0.24 4.02,0.61 7.11,1l0.28 0.04c1.91,0.25 4.03,0.53 6.36,0.84 2.33,0.31 4.85,0.66 7.6,0.96 11.08,1.33 28.07,3.08 48.26,4.39 20.19,1.31 43.63,2.09 67.13,2.05 23.51,-0.01 47.04,-0.83 67.28,-2.01 5.06,-0.25 9.91,-0.62 14.52,-0.92 2.29,-0.16 4.54,-0.31 6.7,-0.46l6.28 -0.51c4.04,-0.33 7.77,-0.62 11.15,-0.92 3.38,-0.32 6.4,-0.6 9.02,-0.85 6.62,-0.59 12.66,-1.28 18.02,-1.85 5.37,-0.55 10,-1.15 13.81,-1.59 2.34,-0.28 4.99,-0.6 7.76,-0.93 2.77,-0.37 5.68,-0.75 8.55,-1.13 2.86,-0.38 5.7,-0.74 8.32,-1.11 2.62,-0.38 5.01,-0.72 7.04,-1.01 8.1,-1.13 15.27,-2.29 16.03,-2.4l2 -0.32 1.89 -0.3c0.37,-0.07 2.41,-0.35 5.37,-0.85 2.96,-0.49 6.84,-1.14 11,-1.84 4.17,-0.67 8.65,-1.53 12.6,-2.22 3.93,-0.71 7.32,-1.31 9.14,-1.67 4.64,-0.9 9.52,-1.81 14.54,-2.8 5,-1.03 10.21,-2.07 15.54,-3.19 5.32,-1.15 10.78,-2.33 16.36,-3.53 5.65,-1.19 11.42,-2.41 17.29,-3.65 2.92,-0.62 5.87,-1.24 8.85,-1.86 1.49,-0.31 2.98,-0.63 4.46,-0.94 1.49,-0.31 3.02,-0.57 4.53,-0.86 6.06,-1.14 12.18,-2.29 18.32,-3.44 3.07,-0.58 6.14,-1.16 9.21,-1.73l2.3 -0.43 2.33 -0.39 4.65 -0.77c6.2,-1.03 12.38,-2.06 18.5,-3.07 1.83,-0.3 3.61,-0.6 5.36,-0.89 1.75,-0.29 3.47,-0.59 5.18,-0.82 3.4,-0.49 6.66,-0.96 9.81,-1.42 6.29,-0.91 12.07,-1.75 17.49,-2.53 5.39,-0.83 10.46,-1.39 15.21,-1.99 4.76,-0.59 9.23,-1.14 13.5,-1.67 4.29,-0.52 8.36,-1.06 12.37,-1.5 4.02,-0.41 7.94,-0.82 11.88,-1.23 3.94,-0.41 7.89,-0.82 11.95,-1.23 2.03,-0.21 4.08,-0.42 6.19,-0.64 1.05,-0.11 2.11,-0.22 3.18,-0.33 1.07,-0.08 2.16,-0.18 3.26,-0.27 4.91,-0.41 12.52,-1.04 20.81,-1.73 2.07,-0.17 4.2,-0.34 6.32,-0.53 2.13,-0.17 4.27,-0.38 6.39,-0.49 4.24,-0.27 8.42,-0.53 12.26,-0.77 3.84,-0.24 7.81,-0.5 11.7,-0.74 1.95,-0.12 3.86,-0.24 5.74,-0.37 1.88,-0.12 3.71,-0.24 5.47,-0.3 7.03,-0.3 12.9,-0.56 15.89,-0.69 18.26,-0.91 29.78,-0.98 37.62,-1.2 7.84,-0.17 11.97,-0.3 15.32,-0.32 4.12,-0.01 11.98,-0.03 17.48,-0.04 2.74,-0 6.18,-0.02 9.5,-0.02 3.32,-0 6.54,-0.03 8.82,0.04 3.07,0.05 8.39,0.15 14.91,0.27 3.26,0.06 6.81,0.12 10.54,0.19 1.87,0.04 3.76,0.07 5.69,0.1 1.92,0.06 3.86,0.15 5.81,0.22 7.78,0.31 15.7,0.62 22.7,0.9l5.06 0.2c1.62,0.06 3.13,0.18 4.58,0.26 2.88,0.18 5.4,0.33 7.43,0.45 3.88,0.24 8.62,0.52 13.14,0.8 2.25,0.14 4.46,0.27 6.47,0.4 2.02,0.11 3.83,0.23 5.3,0.37 5.55,0.46 11.18,0.93 17.66,1.47 3.24,0.27 6.7,0.56 10.46,0.87l2.89 0.24c0.97,0.09 1.96,0.2 2.97,0.31 2.03,0.21 4.13,0.44 6.34,0.67 5.67,0.61 13.99,1.49 18.5,1.97 2.11,0.23 4.16,0.43 6.2,0.67 2.03,0.24 4.06,0.49 6.16,0.75 2.12,0.27 4.4,0.56 7.15,0.9l3.34 0.43 3.01 0.4c0.59,0.09 3.92,0.54 7.4,1.02l4.88 0.69c0.29,-0.04 0.63,-0.09 0.95,-0.16 0.72,-0.16 1.52,-0.25 1.77,-0.22 0.25,0.04 0.82,-0.11 1.28,-0.34 0.89,-0.42 1.35,-0.85 1.44,-1.31 -1.03,-0.16 -2.43,-0.38 -2.72,-0.42l-1.2 -0.18 -3.6 -0.54 -1.43 -0.21 -1.35 -0.19 -0.33 -0.05 -1.95 -0.28 -2.91 -0.41c-0.64,-0.09 -2.04,-0.29 -3.14,-0.44l-2.6 -0.36 -1.66 -0.23 -4.02 -0.52c-2.78,-0.34 -5.58,-0.7 -8.36,-1.04 -2.79,-0.33 -5.56,-0.61 -8.22,-0.9 -5.33,-0.58 -10.23,-1.11 -14.2,-1.53 -3.43,-0.36 -7.97,-0.88 -12.55,-1.34 -4.63,-0.39 -9.28,-0.79 -12.84,-1.09 -2.4,-0.21 -6.09,-0.52 -10.7,-0.91 -2.31,-0.2 -4.84,-0.41 -7.56,-0.65 -2.72,-0.25 -5.69,-0.38 -8.76,-0.59 -12.35,-0.74 -26.92,-1.83 -41.18,-2.27 -7.1,-0.28 -14.06,-0.57 -20.51,-0.83 -6.5,-0.13 -12.48,-0.24 -17.59,-0.34 -5.11,-0.1 -9.34,-0.18 -12.33,-0.24 -2.99,-0.06 -4.73,-0.09 -4.86,-0.08 -0.04,0 -5.53,0 -12.31,0.01 -6.78,0.01 -15.79,0.01 -20.06,0.02 -3.22,-0.01 -8.71,0.17 -15.8,0.31 -3.55,0.08 -7.5,0.16 -11.77,0.26 -4.28,0.11 -8.87,0.14 -13.72,0.39 -9.71,0.41 -20.37,0.86 -31.38,1.33 -11.02,0.68 -22.35,1.39 -33.39,2.08 -7.14,0.55 -15.25,1.25 -22.94,1.88 -3.85,0.32 -7.6,0.63 -11.08,0.92 -1.73,0.13 -3.4,0.31 -4.98,0.47 -1.58,0.16 -3.07,0.31 -4.44,0.46 7.7,-0.88 15.45,-1.43 23.18,-2.12l11.6 -0.98c3.87,-0.32 7.73,-0.69 11.61,-0.9 15.48,-0.96 30.98,-2.13 46.45,-2.68 30.97,-1.57 61.83,-1.86 92.53,-1.77l22.94 0.4 5.73 0.1 2.87 0.05c0.96,0.03 1.9,0.07 2.85,0.1l11.38 0.44 11.38 0.44 5.69 0.22c1.89,0.07 3.79,0.14 5.66,0.27l22.55 1.37 5.63 0.34c1.88,0.12 3.77,0.21 5.61,0.38l11.14 0.92c7.42,0.63 14.88,1.2 22.26,1.89l21.98 2.34c3.66,0.4 7.33,0.76 10.98,1.19 3.63,0.43 7.25,0.88 10.87,1.34 7.28,0.93 14.51,1.91 21.7,2.94 0.16,-0.24 0.25,-0.58 0.14,-0.77 -0.06,-0.1 -1.35,-0.37 -2.85,-0.61 -1.72,-0.27 -2.76,-0.5 -2.81,-0.62 -0.04,-0.11 -0.76,-0.29 -1.62,-0.42 -0.84,-0.12 -1.68,-0.33 -1.85,-0.48 -0.19,-0.15 -0.64,-0.26 -1.07,-0.26 -0.43,-0.01 -0.79,-0.07 -0.82,-0.14 -0.03,-0.07 -0.93,-0.24 -2.01,-0.37 -1.07,-0.13 -2.26,-0.33 -2.64,-0.45 -0.38,-0.12 -0.86,-0.17 -1.05,-0.11 -0.22,0.06 -0.62,0.01 -0.96,-0.12 -0.32,-0.12 -0.98,-0.21 -1.46,-0.21 -0.63,0.01 -0.84,-0.04 -0.75,-0.17 0.05,-0.06 -0.04,-0.12 -0.22,-0.18l-0.15 -0.04c0,0 0,-0.01 -0.14,-0.03l-0.41 -0.06 -1.79 -0.25c-2.49,-0.33 -5.18,-0.61 -5.91,-0.57 -0.79,0.04 -1.66,-0.09 -3.34,-0.49 -1.79,-0.42 -2.65,-0.51 -4.03,-0.51 -1.38,0 -1.97,-0.06 -2.87,-0.35 -0.88,-0.28 -1.37,-0.33 -2.34,-0.28 -0.67,0.04 -2.18,-0.08 -3.36,-0.26 -1.17,-0.18 -2.18,-0.27 -2.23,-0.19 -0.05,0.07 -2.32,-0.1 -5.04,-0.39 -2.74,-0.28 -9.72,-1.01 -15.57,-1.53 -4.38,-0.32 -11.41,-0.87 -19.18,-1.49 -3.88,-0.31 -7.95,-0.65 -11.98,-0.97 -4.03,-0.31 -8.07,-0.5 -11.78,-0.75l-12.16 -0.72c-3.41,-0.2 -7.36,-0.44 -11.67,-0.7 -4.34,-0.17 -9.05,-0.35 -13.89,-0.54 -2.69,-0.1 -5.27,-0.2 -7.64,-0.29 -0.93,-0.04 -1.77,-0.08 -2.48,-0.11 -1.43,-0.07 -2.32,-0.13 -2.35,-0.17 -0.06,-0.07 -0.21,-0.1 -0.37,-0.07 -0.04,0 -0.54,-0 -1.42,-0.02 -0.88,-0.03 -2.13,-0.06 -3.66,-0.1 -3.05,-0.12 -7.29,-0.12 -11.9,-0.19 -9.23,-0.12 -18.07,-0.2 -19.66,-0.2 -1.59,0.01 -5.18,-0.04 -8.02,0.02 -2.84,0.06 -6.81,0.15 -8.85,0.19 -6.35,0.17 -10.55,0.26 -15.44,0.34 -2.6,0.06 -7.38,0.1 -10.66,0.21 -10.22,0.37 -16.72,0.61 -23.03,0.84l-7.01 0.25 -3.51 0.13 -3.52 0.2c-9.15,0.55 -35.88,1.6 -42.67,2.09 -2.53,0.12 -7.07,0.35 -10.09,0.49 -3.02,0.15 -7.35,0.37 -9.62,0.49 -3.7,0.13 -9.04,0.57 -29.01,2.06 -1.63,0.13 -4.85,0.38 -8.7,0.68 -1.93,0.13 -4,0.36 -6.12,0.57 -2.12,0.21 -4.3,0.43 -6.39,0.64 -8.39,0.83 -19.63,1.95 -24.99,2.48 -9.57,1.14 -17.29,2.06 -26.67,3.18 -2.35,0.29 -4.79,0.58 -7.4,0.9 -2.59,0.35 -5.34,0.76 -8.3,1.18 -5.92,0.86 -12.7,1.84 -20.75,3 -6.8,0.92 -13.57,2.15 -20.37,3.25 -6.78,1.13 -13.54,2.24 -20.09,3.33 -12.99,2.44 -25.26,4.7 -35.56,6.67 -2.01,0.42 -7.33,1.57 -11.82,2.56 -4.48,0.99 -8.48,1.81 -8.9,1.83 -0.42,0.03 -0.86,0.13 -1,0.25 -0.14,0.11 -0.58,0.27 -0.99,0.36 -0.4,0.09 -4.25,0.95 -8.56,1.92 -4.16,0.96 -11.46,2.64 -16.22,3.75 -11.71,2.6 -38.82,8.21 -67.76,12.69 -14.42,2.33 -29.29,4.31 -42.64,6 -3.35,0.39 -6.6,0.77 -9.73,1.14 -3.13,0.36 -6.13,0.73 -8.99,1 -5.72,0.58 -10.82,1.14 -15.09,1.51l-0.31 0.03 -3 0.28c-1.52,0.13 -5.62,0.47 -10.72,0.9 -5.12,0.34 -10.7,0.71 -16.08,1.07 -5.39,0.3 -10.58,0.61 -14.97,0.93 -7.6,0.31 -12.59,0.51 -15.97,0.64 -3.38,0.13 -5.16,0.18 -6.38,0.27 -2.35,0.14 -7.17,0.43 -12.8,0.66 -2.81,0.1 -5.82,0.2 -8.82,0.29 -3,0.1 -5.99,0.2 -8.76,0.23 -4.53,0.03 -8.89,0.07 -12.97,0.09 -4.07,-0.03 -7.86,-0.06 -11.35,-0.08 -3.48,-0.01 -6.6,-0.08 -9.33,-0.14 -2.73,-0.06 -5.05,-0.11 -6.92,-0.15l0 0.01c-1.62,-0.05 -3.33,-0.06 -5.17,-0.15 -3.06,-0.12 -7.57,-0.3 -10.02,-0.4 -4.61,-0.15 -8.5,-0.44 -14.37,-0.81 -1.89,-0.12 -5.58,-0.34 -8.18,-0.55 -2.6,-0.19 -5.93,-0.44 -7.4,-0.55 -0.72,-0.07 -3.17,-0.18 -6.45,-0.45 -3.28,-0.26 -7.44,-0.6 -11.69,-0.94 -4.24,-0.35 -8.05,-0.77 -10.86,-1.04 -1.39,-0.14 -2.54,-0.26 -3.34,-0.35 -0.8,-0.09 -1.25,-0.14 -1.28,-0.15 -0.1,-0.05 -0.26,-0.04 -0.39,0.02 -0.06,0.03 -0.93,-0.01 -2.23,-0.15 -0.66,-0.07 -1.43,-0.15 -2.29,-0.23 -2.16,-0.23 -4.51,-0.49 -6.97,-0.76 -17.63,-1.99 -32.63,-4.4 -33.96,-4.59 -13.24,-2.08 -30.02,-5.4 -37.31,-7.15l-0.94 -0.21 -0.42 -0.09 -0.11 -0.03 -0.41 -0.11 -0.81 -0.21c-0.52,-0.13 -0.97,-0.24 -1.24,-0.29 -0.51,-0.12 -0.86,-0.28 -0.78,-0.35 0.09,-0.07 -0.09,-0.13 -0.36,-0.14 -0.29,-0 -0.52,-0.11 -0.51,-0.23 -0.01,-0.18 -0.11,-0.19 -0.48,-0.07 -0.37,0.12 -0.49,0.1 -0.58,-0.09 -0.09,-0.19 -0.26,-0.21 -0.83,-0.12 -0.54,0.09 -0.72,0.07 -0.72,-0.08 0,-0.27 -1.81,-0.65 -2.07,-0.43 -0.15,0.13 -0.36,0.09 -0.75,-0.1 -0.31,-0.15 -0.88,-0.28 -1.29,-0.29 -0.44,-0.02 -0.76,-0.1 -0.82,-0.2 -0.05,-0.1 -0.43,-0.21 -0.87,-0.23 -0.43,-0.03 -1.53,-0.24 -2.44,-0.47 -0.92,-0.22 -1.75,-0.4 -1.88,-0.36 -0.14,0.04 -0.47,-0.03 -0.74,-0.16 -0.29,-0.14 -0.75,-0.21 -1.11,-0.17 -0.34,0.05 -1.21,-0.07 -1.94,-0.26 -0.73,-0.19 -1.48,-0.29 -1.69,-0.23 -0.23,0.07 -1.26,-0.11 -2.78,-0.48 -1.24,-0.33 -2.48,-0.56 -2.69,-0.51 -0.41,0.1 -0.92,0.34 -1.22,0.55l6.66 1.82c2.23,0.61 4.43,1.24 6.72,1.78l6.83 1.69c2.27,0.57 4.55,1.14 6.9,1.64 35.82,8 74.75,13.23 115.09,15.87 -6.5,-0.46 -15.56,-1.02 -25.49,-1.96 -5.01,-0.4 -10.18,-0.98 -15.47,-1.54 -5.31,-0.52 -10.57,-1.24 -15.81,-1.88 -10.41,-1.34 -20.32,-2.84 -28.43,-4.24 -2.03,-0.34 -3.99,-0.64 -5.76,-0.97 -1.77,-0.33 -3.43,-0.64 -4.94,-0.93 -3.03,-0.57 -5.48,-1.03 -7.2,-1.35 -4.07,-0.85 -10.66,-2.22 -14.65,-3.05l0.01 0.01z"/>
    <path class="fil3" d="M923.78 115.55c-0.49,0.05 -0.48,0.21 0.01,0.36 0.19,0.06 3.64,0.39 9.54,0.92 2.95,0.27 6.53,0.58 10.61,0.95l6.49 0.58c2.29,0.18 4.64,0.5 7.12,0.77 4.95,0.56 10.3,1.16 15.96,1.79 5.66,0.64 11.66,1.24 17.72,2.14 6.09,0.83 12.38,1.7 18.78,2.57 3.19,0.45 6.45,0.85 9.63,1.35 3.2,0.5 6.42,1 9.63,1.5 5.8,1.02 11.58,2.08 15.88,2.91 2.15,0.42 3.93,0.77 5.17,1.01 1.22,0.25 1.92,0.4 1.86,0.4 -0.19,0.03 -0.6,0.3 -0.89,0.6 -0.03,0.03 -0.68,-0.06 -1.8,-0.23l-4.86 -0.74c-4.11,-0.64 -9.85,-1.52 -16.39,-2.48 -3.49,-0.53 -7.04,-1.07 -10.65,-1.59 -3.62,-0.51 -7.31,-0.96 -11.02,-1.45 -7.43,-0.98 -15.02,-1.96 -22.69,-2.97 -7.78,-0.82 -15.66,-1.65 -23.58,-2.48 -1.98,-0.21 -3.97,-0.42 -5.95,-0.62 -1.98,-0.21 -3.97,-0.43 -5.98,-0.57l-12.07 -0.97c-4.02,-0.33 -8.03,-0.65 -12.04,-0.98 -2.01,-0.16 -4.01,-0.33 -6,-0.49 -2,-0.14 -4.03,-0.24 -6.03,-0.36 -8.05,-0.46 -16.02,-0.92 -23.88,-1.37 -3.92,-0.26 -7.86,-0.37 -11.75,-0.5 -3.9,-0.13 -7.75,-0.26 -11.56,-0.4 -7.63,-0.25 -15.04,-0.59 -22.33,-0.59 -7.25,-0.09 -14.28,-0.16 -21.02,-0.24 -1.68,-0.02 -3.35,-0.04 -5,-0.06 -1.65,-0.01 -3.29,0.03 -4.91,0.04 -3.23,0.03 -6.38,0.07 -9.45,0.1 -6.13,0.06 -11.93,0.13 -17.32,0.19 -2.7,0 -5.29,0.11 -7.79,0.19 -2.5,0.09 -4.89,0.16 -7.16,0.24 -9.1,0.31 -16.39,0.55 -21.41,0.72 -2.51,0.1 -4.47,0.25 -5.79,0.31l-1.52 0.09 -0.54 0.04c-0.78,0.15 -1.12,0.31 -0.73,0.33 0.08,0 0.83,-0.02 2.23,-0.09 1.39,-0.06 3.42,-0.17 6,-0.26 5.18,-0.14 12.65,-0.33 21.93,-0.57 2.31,-0.06 4.76,-0.13 7.3,-0.19l3.89 -0.1c1.33,-0.02 2.67,-0.01 4.04,-0.03 5.49,-0.03 11.36,-0.05 17.57,-0.08 12.45,-0.19 26.15,0.2 40.74,0.43 58.36,1.23 129.5,7.54 183,16.39 5.71,1.02 10.65,1.96 14.17,2.63l4.11 0.81c0.95,0.2 1.47,0.31 1.47,0.31 -0.41,0.53 -4.35,-0.32 -6.86,0.47 -0.13,0.04 -0.26,-0.02 -0.39,0.06 -0.19,0.12 -0.42,0.08 -0.98,-0.15 -0.59,-0.26 -0.83,-0.28 -1.23,-0.14 -0.35,0.12 -0.72,0.1 -1.27,-0.08 -1.02,-0.33 -3.88,-0.82 -3.97,-0.68 -0.05,0.06 -0.77,-0.04 -1.62,-0.21 -1.11,-0.23 -2.1,-0.42 -2.96,-0.58l-1.2 -0.22 -0.53 -0.09 -1.48 -0.23c-5.56,-0.86 -8.69,-1.27 -9.21,-1.24 -0.77,0.03 -1.37,-0.08 -2.16,-0.37 -0.71,-0.26 -1.5,-0.39 -2.18,-0.37 -1.39,0.05 -7.13,-0.77 -7.6,-1.07 -0.19,-0.13 -0.93,-0.31 -1.66,-0.41 -0.71,-0.1 -1.03,-0.01 -0.69,0.17 0.53,0.29 -0.34,0.21 -5.67,-0.55 -3.47,-0.49 -6.32,-0.83 -6.37,-0.75 -0.05,0.08 -0.8,-0.03 -1.69,-0.25 -0.88,-0.22 -1.94,-0.4 -2.4,-0.4 -0.44,-0 -1.46,-0.15 -2.25,-0.32 -1.46,-0.33 -9.88,-1.27 -28.01,-3.31 -5.26,-0.64 -10.34,-1.07 -11.15,-1.21 -0.8,-0.13 -1.85,-0.2 -2.28,-0.16 -0.44,0.04 -2.69,-0.13 -5.03,-0.38 -4.11,-0.46 -7.63,-0.73 -13.59,-1.05 -1.58,-0.08 -3.18,-0.25 -3.58,-0.38 -0.2,-0.05 -1.42,-0.22 -3.27,-0.36 -1.85,-0.14 -4.31,-0.3 -6.9,-0.45 -4.92,-0.29 -9.96,-0.59 -11.15,-0.66 -0.28,-0.01 -0.67,-0.04 -0.88,-0.03 -0.34,-0 -2.56,-0.15 -4.25,-0.27 -1.43,-0.09 -8.82,-0.57 -9.97,-0.59 -0.64,-0.02 -2.08,-0.07 -3.2,-0.11 -1.65,-0.06 -5.7,-0.21 -9.62,-0.35 -0.33,-0.01 -2.03,-0.03 -3.82,-0.04 -1.79,-0.01 -3.41,-0.02 -3.6,-0.04l-0.86 -0.06c-0.28,-0.02 -2.61,-0.06 -5.19,-0.08 -2.58,-0.01 -6.07,-0.1 -7.77,-0.08 -1.7,0.01 -5.47,0.03 -8.38,0.04 -3.44,0.02 -9.63,0.01 -16.09,-0 -3.23,0.01 -6.53,-0.05 -9.6,-0 -3.07,0.05 -5.91,0.1 -8.2,0.13 -3.96,0.06 -10.52,0.19 -14.56,0.3 -1.37,0.04 -3.48,0.08 -6.12,0.12 -1.32,0.03 -2.76,0.02 -4.33,0.08l-4.98 0.18c-7,0.22 -15.3,0.49 -23.26,0.75 -1.99,0.07 -3.96,0.1 -5.88,0.2 -1.92,0.1 -3.79,0.2 -5.6,0.29 -3.61,0.18 -6.92,0.34 -9.73,0.48 -2.82,0.13 -5.13,0.23 -6.74,0.31l-1.87 0.07c-0.43,0.01 -0.66,0.01 -0.65,-0l-1.99 0.07c-1.23,0.05 -2.92,0.12 -4.79,0.2 -3.73,0.17 -8.69,0.53 -11.04,0.65 -3.54,0.2 -12.03,0.76 -22.65,1.48 -10.59,0.87 -23.31,2.1 -35.35,3.2 -8.94,1.02 -20.67,2.36 -26.06,2.98 -3.44,0.41 -6.63,0.71 -9.6,1.12 -2.97,0.41 -5.75,0.79 -8.4,1.15 -5.32,0.74 -10.15,1.41 -15.04,2.08 -2.45,0.34 -4.9,0.69 -7.46,1.05 -2.54,0.37 -5.14,0.84 -7.91,1.29 -5.52,0.92 -11.66,1.95 -18.95,3.17l-7.62 1.28c-2.61,0.49 -5.26,1 -7.79,1.48 -5.08,0.95 -9.7,1.82 -12.65,2.37 -2.55,0.47 -5.08,0.94 -7.59,1.4 -2.52,0.47 -5.02,0.92 -7.47,1.47 -4.91,1.06 -9.77,2.12 -14.61,3.17 -4.82,1.08 -9.65,2.14 -14.47,3.22 -5.01,1.17 -10.04,2.34 -15.1,3.53 -4.48,1.03 -8.33,1.86 -11.57,2.59 -3.25,0.72 -5.89,1.31 -8,1.73 -4.22,0.87 -6.22,1.26 -6.4,1.25 -0.09,0.01 -0.28,0.03 -0.42,0.09 -0.25,0.06 -4.16,0.92 -9.5,1.93l-8.8 1.66 -4.66 0.87c-1.56,0.27 -3.09,0.53 -4.56,0.79 -7.6,1.3 -11.88,2.1 -12.09,2.25 -0.24,0.15 -0.43,0.18 -0.61,0.08 -0.13,-0.07 -2.12,0.19 -8.15,1.09 -3.01,0.44 -7.01,1.1 -12.33,1.83 -5.32,0.74 -11.89,1.74 -20.08,2.76 -4.31,0.56 -7.09,0.91 -8.8,1.1 -1.71,0.17 -2.34,0.19 -2.36,0.12 -0.04,-0.15 -0.1,-0.14 -0.26,0.04 -0.08,0.1 -1.01,0.25 -3.65,0.59 -2.64,0.32 -6.97,0.9 -13.88,1.61 -4.92,0.5 -9.12,0.93 -13.03,1.33 -3.91,0.36 -7.53,0.65 -11.26,0.96l-5.74 0.46c-1.98,0.15 -4.03,0.27 -6.24,0.42 -2.19,0.14 -4.52,0.28 -7.03,0.44 -2.52,0.16 -5.21,0.32 -8.15,0.45 -2.73,0.14 -8.3,0.41 -12.39,0.61 -4.09,0.18 -9.24,0.33 -11.45,0.39 -2.21,0.06 -7.23,0.24 -11.13,0.3 -4.62,0.1 -8.54,0.18 -11.95,0.25 -3.41,0.02 -6.32,0.02 -8.9,0.02 -2.28,-0.01 -6.59,0.02 -9.55,-0.01 -7.27,-0.09 -12.33,-0.15 -15.88,-0.23 -4.81,-0.07 -8.64,-0.14 -10.76,-0.2 -4.21,-0.08 -11.01,-0.35 -15.12,-0.49 -9.55,-0.21 -28.02,-1.35 -35.03,-1.95 -1.49,-0.12 -3.2,-0.25 -4.76,-0.37 -1.55,-0.15 -2.92,-0.28 -3.79,-0.36 -1.72,-0.17 -5.26,-0.53 -7.89,-0.79l-5.28 -0.53 -0.92 -0.05c-0.21,-0.01 -1.83,-0.21 -3.6,-0.44 -1.78,-0.23 -3.5,-0.44 -3.82,-0.47 -4,-0.37 -8.15,-0.77 -9.82,-0.98 -1.14,-0.13 -2.59,-0.3 -3.24,-0.37 -1.14,-0.15 -8.74,-1 -10.19,-1.16 -1.73,-0.21 -3.98,-0.51 -4.31,-0.57 -0.2,-0.03 -0.59,-0.1 -0.87,-0.13 -1.2,-0.17 -6.31,-0.83 -11.26,-1.53 -5.2,-0.8 -9.88,-1.45 -10.37,-1.44 -0.49,0.01 -2.16,-0.21 -3.7,-0.5 -5.76,-1.16 -9.22,-1.82 -13.46,-2.43 -2.42,-0.34 -4.62,-0.79 -4.94,-0.95 -0.32,-0.16 -1.33,-0.37 -2.2,-0.47 -0.88,-0.1 -5.92,-1.03 -11.21,-2.06 -8.89,-1.96 -15.49,-3.32 -19.86,-4.42l-5.19 -1.21 -1.56 -0.35 -0.53 -0.11c-0.13,-0.03 -0.09,-0.01 -0.14,-0.01 -0.25,0.02 -0.47,-0.03 -0.51,-0.09 -0.04,-0.07 -0.31,-0.1 -0.6,-0.05 -0.3,0.04 -0.47,0.01 -0.4,-0.07 0.07,-0.07 -0.49,-0.26 -1.28,-0.41 -1.18,-0.26 -1.33,-0.33 -0.99,-0.5 0.21,-0.1 0.28,-0.22 0.13,-0.26 -0.15,-0.04 -0.39,-0.01 -0.54,0.06 -0.35,0.18 -1.61,-0.11 -1.67,-0.38 -0.02,-0.13 -0.22,-0.16 -0.54,-0.06 -0.36,0.11 -0.5,0.08 -0.51,-0.08 -0.01,-0.21 -2.45,-0.88 -7.05,-1.93 -0.87,-0.2 -1.54,-0.41 -1.48,-0.46 0.07,-0.06 -0.59,-0.28 -1.43,-0.51 -0.84,-0.23 -1.81,-0.49 -2.43,-0.57 -0.66,-0.1 -0.94,-0.23 -1,-0.45 -0.06,-0.24 -0.26,-0.33 -1.07,-0.39 -0.75,-0.06 -0.97,-0.14 -0.91,-0.29 0.04,-0.11 -0.15,-0.12 -0.17,-0.2 -0.46,-1.48 -4.45,-2.5 -3.86,-2.99 0,0 0.23,0.05 0.64,0.16 0.41,0.11 1.01,0.27 1.77,0.47 1.51,0.41 3.71,0.99 6.34,1.71 2.61,0.74 5.81,1.47 9.22,2.32 1.71,0.42 3.49,0.85 5.3,1.3 0.9,0.22 1.83,0.44 2.74,0.67 0.94,0.21 1.89,0.41 2.85,0.62 19.23,4.83 39.65,8.89 59.49,12 4.99,0.73 9.89,1.5 14.73,2.17 4.88,0.63 9.68,1.25 14.35,1.84 4.73,0.52 9.32,1.02 13.79,1.51 2.22,0.26 4.45,0.44 6.63,0.64 2.18,0.2 4.31,0.39 6.43,0.58 2.1,0.18 4.16,0.38 6.18,0.54 2.03,0.15 4.02,0.29 5.96,0.43 3.88,0.27 7.55,0.57 11.05,0.76l9.82 0.53c1.52,0.08 2.98,0.16 4.38,0.24 1.4,0.07 2.74,0.1 4.03,0.15 5.11,0.18 9.17,0.33 11.97,0.43 2.81,0.08 4.38,0.08 4.51,0.08 0.4,-0.04 0.11,-0.17 -0.66,-0.31 -0.03,0 -0.41,-0.02 -1.12,-0.05 -0.72,-0.03 -1.76,-0.05 -3.11,-0.12 -2.71,-0.13 -6.64,-0.31 -11.64,-0.54 -2.5,-0.1 -5.24,-0.27 -8.22,-0.46 -2.98,-0.18 -6.19,-0.39 -9.63,-0.6 -3.43,-0.21 -7.04,-0.54 -10.85,-0.83 -1.9,-0.15 -3.87,-0.31 -5.86,-0.47 -2.01,-0.16 -4.02,-0.38 -6.09,-0.57 -4.13,-0.42 -8.46,-0.79 -12.87,-1.3 -4.4,-0.51 -8.96,-1.05 -13.63,-1.59 -4.62,-0.63 -9.35,-1.27 -14.2,-1.93 -4.82,-0.69 -9.66,-1.49 -14.61,-2.26 -19.68,-3.23 -40,-7.43 -59.24,-12.43 -0.98,-0.25 -1.96,-0.51 -2.93,-0.77 -0.96,-0.27 -1.9,-0.54 -2.83,-0.82 -1.88,-0.54 -3.71,-1.07 -5.48,-1.58 -1.77,-0.51 -3.47,-1 -5.09,-1.47 -1.6,-0.48 -3.06,-0.97 -4.44,-1.4 -2.72,-0.88 -4.96,-1.62 -6.53,-2.13 -1.56,-0.52 -2.43,-0.84 -2.39,-0.87 0.3,-0.3 0.48,-0.62 0.39,-0.72 -0,-0.01 0.25,0.05 0.77,0.19 0.5,0.14 1.25,0.34 2.19,0.6 1.86,0.52 4.51,1.26 7.55,2.1 3.01,0.88 6.56,1.74 10.1,2.64 3.57,0.87 7.09,1.84 10.45,2.55 3.96,0.96 7.82,1.9 11.53,2.8 3.78,0.82 7.41,1.62 10.86,2.37 1.73,0.37 3.39,0.76 5.05,1.07l4.82 0.93c3.12,0.6 6.01,1.16 8.64,1.66 5.34,0.93 9.69,1.64 12.73,2.15 3.02,0.52 4.8,0.74 4.95,0.74 0.6,-0.02 0.77,-0.16 0.41,-0.32 -0.29,-0.06 -6.81,-1.27 -17.42,-3.25 -2.62,-0.54 -5.47,-1.13 -8.55,-1.76 -3.08,-0.63 -6.39,-1.3 -9.78,-2.11 -3.42,-0.78 -7.01,-1.61 -10.75,-2.47 -3.66,-0.94 -7.48,-1.9 -11.4,-2.9 -3.21,-0.83 -6.57,-1.92 -9.99,-2.91 -3.39,-1.02 -6.78,-1.98 -9.63,-2.97 -2.88,-0.96 -5.38,-1.78 -7.14,-2.37 -1.76,-0.59 -2.78,-0.95 -2.7,-0.97 0.27,-0.05 0.49,-0.19 0.51,-0.3 0.02,-0.24 1.54,-0.88 1.86,-0.78 0.12,0.04 0.65,-0.02 1.18,-0.12 0.53,-0.1 1.01,-0.13 1.08,-0.05 0.07,0.08 0.33,0.05 0.58,-0.07 0.09,-0.04 0.23,-0.08 0.4,-0.12l1.5 0.45c0.23,0.07 0.72,0.22 1.11,0.34l3.34 1c0.11,0.03 0.69,0.21 1.3,0.4 0.61,0.18 1.16,0.35 1.24,0.38l0.31 0.09 1.8 0.54c0.9,0.25 2.14,0.59 2.74,0.75 0.6,0.16 1.91,0.53 2.94,0.81 1.21,0.33 3.39,0.93 5.67,1.55 1.14,0.31 2.29,0.65 3.41,0.9 2.8,0.69 5.38,1.34 7.47,1.86 1.62,0.4 3.49,0.87 5.49,1.37 2.05,0.46 4.24,0.94 6.42,1.44 4.38,0.98 8.75,1.98 12.21,2.62 2.19,0.44 5.51,1.1 9.63,1.92 4.16,0.78 9.21,1.64 14.75,2.62 4.3,0.71 9.03,1.42 14.05,2.21 5.04,0.77 10.49,1.46 16.15,2.25 2.84,0.38 5.8,0.7 8.78,1.06 3,0.34 6.02,0.74 9.14,1.06l9.51 0.95c1.61,0.16 3.23,0.32 4.86,0.48 1.64,0.13 3.29,0.27 4.95,0.4 3.32,0.27 6.67,0.55 10.04,0.83 3.4,0.22 6.82,0.45 10.26,0.67 1.72,0.11 3.44,0.23 5.17,0.33 1.73,0.11 3.48,0.18 5.22,0.27 3.49,0.17 6.98,0.34 10.47,0.51 14.02,0.52 28.08,0.89 41.66,0.85 27.12,0.05 52.12,-0.97 70.26,-2.1 2.27,-0.12 4.43,-0.26 6.47,-0.4 2.05,-0.14 3.98,-0.28 5.78,-0.41 3.6,-0.26 6.73,-0.44 9.27,-0.67 5.09,-0.43 7.92,-0.66 7.92,-0.66 1.96,-0.17 4.12,-0.36 6.5,-0.57 2.38,-0.24 4.98,-0.5 7.8,-0.78l9.19 -0.93c3.28,-0.37 6.81,-0.77 10.59,-1.2 38.17,-4.48 74.8,-10.33 112.63,-18.25 5.53,-1.09 13.96,-3.05 23.45,-5.07 9.49,-2.03 19.83,-4.24 28.73,-6.14 6.81,-1.32 13.13,-2.49 19.01,-3.61 5.89,-1.1 11.34,-2.17 16.54,-3.1 10.46,-1.73 19.77,-3.25 28.96,-4.77 4.57,-0.8 9.21,-1.38 13.89,-2.06 4.7,-0.66 9.5,-1.34 14.53,-2.05 10.02,-1.53 21.1,-2.69 34.1,-4.26 2.56,-0.3 5.85,-0.69 9.64,-1.14 3.79,-0.4 8.08,-0.79 12.57,-1.23 4.49,-0.43 9.19,-0.88 13.82,-1.33 4.64,-0.43 9.21,-0.93 13.48,-1.19 5.7,-0.42 11.5,-0.85 17.28,-1.27l8.68 -0.64c1.44,-0.1 2.88,-0.21 4.32,-0.32 1.44,-0.07 2.87,-0.15 4.3,-0.23 11.41,-0.58 22.47,-1.22 32.53,-1.67 10.05,-0.31 19.09,-0.59 26.46,-0.82 7.37,-0.29 13.04,-0.23 16.39,-0.28 4.44,-0.04 13.83,-0.11 20.88,-0.17 3.53,-0.06 6.7,0.01 9.01,0.04 2.31,0.03 3.74,0.06 3.76,0.05 0.26,0 7.24,0.1 17.88,0.24 2.66,0.04 5.55,0.06 8.63,0.13 3.06,0.11 6.28,0.23 9.65,0.35 6.73,0.25 14.01,0.51 21.43,0.77 1.85,0.05 3.71,0.15 5.56,0.27l5.56 0.34c3.71,0.22 7.41,0.44 11.06,0.66 7.28,0.45 14.38,0.79 20.75,1.39 12.8,1.08 23.23,1.91 28.25,2.37 7.37,0.79 19.29,2.07 26.5,2.84 2.07,0.23 4.42,0.45 6.91,0.76 2.47,0.33 5.13,0.68 7.89,1.05 5.53,0.73 11.47,1.52 17.29,2.3 2.91,0.4 5.8,0.74 8.55,1.16 2.75,0.41 5.4,0.81 7.87,1.18l4.63 0.72 3.26 0.52 3.03 0.48 2.02 0.33 0.34 0.06 1.4 0.23 1.49 0.25c1.53,0.26 3.11,0.53 3.75,0.65l1.25 0.22 1.67 0.3c0.04,0.09 0.06,0.17 0.06,0.22 -0.03,0.17 0.09,0.29 0.26,0.26 0.17,-0.02 0.44,0.18 0.61,0.45 0.17,0.26 0.42,0.5 0.54,0.53 0.37,0.06 0.28,1.04 -0.08,1.2 -0.18,0.07 -0.25,0.25 -0.17,0.38 0.01,0.03 -0.71,-0.06 -2,-0.25l-5.35 -0.79c-4.46,-0.66 -10.4,-1.53 -16.37,-2.35 -3.25,-0.48 -6.49,-0.96 -9.73,-1.44 -3.23,-0.48 -6.51,-0.85 -9.73,-1.28 -6.46,-0.83 -12.81,-1.64 -18.95,-2.43 -6.11,-0.85 -12.17,-1.4 -17.87,-1.99 -5.71,-0.59 -11.12,-1.14 -16.11,-1.65 -2.5,-0.24 -4.87,-0.53 -7.19,-0.69l-6.55 -0.51c-4.11,-0.31 -7.73,-0.58 -10.71,-0.81 -5.97,-0.44 -9.47,-0.69 -9.69,-0.67l-0.11 0zm-351.45 15.34c-6.7,1.29 -12.68,2.36 -18.39,3.33 -5.7,0.99 -11.19,1.8 -16.75,2.88 -5.6,1.03 -11.37,2.11 -17.82,3.3 -3.21,0.61 -6.6,1.25 -10.19,1.96 -3.56,0.79 -7.31,1.63 -11.36,2.55 -8.08,1.85 -15.59,3.48 -22.77,5.01 -7.24,1.57 -14.04,3.05 -20.64,4.29l-9.65 1.87c-3.18,0.57 -6.3,1.14 -9.37,1.7 -6.13,1.15 -12.17,2.16 -18.13,3.25 -23.92,4.32 -44.28,6.9 -55.88,8.49 -5.61,0.72 -10.5,1.35 -14.74,1.89 -4.25,0.5 -7.83,0.91 -10.81,1.26 -5.93,0.72 -9.45,1.03 -10.91,1.21 -1.46,0.16 -0.89,0.11 1.31,-0.1l4.47 -0.43 6.58 -0.72 8.39 -0.93c3.07,-0.33 6.36,-0.78 9.87,-1.2 3.5,-0.44 7.21,-0.86 11.04,-1.39 3.83,-0.52 7.81,-1.06 11.89,-1.62 16.27,-2.31 33.95,-5.11 49.77,-7.88 4.26,-0.75 8.29,-1.51 12.16,-2.22 1.93,-0.36 3.83,-0.7 5.68,-1.06 1.85,-0.36 3.65,-0.72 5.44,-1.08 3.56,-0.72 6.99,-1.41 10.35,-2.08 3.33,-0.72 6.58,-1.43 9.8,-2.12 6.35,-1.37 12.56,-2.71 18.98,-4.1 6.38,-1.39 12.98,-2.83 20.12,-4.39 14.45,-2.84 19.64,-3.83 23.12,-4.49l4.87 -0.91c1.81,-0.33 4.14,-0.81 7.98,-1.43 18.03,-3.04 25.62,-4.83 25.62,-4.83l-0.03 0.01z"/>
   </g>
  </g>
  <polygon class="fil4" points="-0,190.86 486.02,190.86 486.02,0 -0,0 "/>
 </g>
</svg>
