<?xml version="1.0" encoding="UTF-8"?>
<!DOCTYPE svg PUBLIC "-//W3C//DTD SVG 1.1//EN" "http://www.w3.org/Graphics/SVG/1.1/DTD/svg11.dtd">
<!-- Creator: CorelDRAW -->
<svg xmlns="http://www.w3.org/2000/svg" xml:space="preserve" width="1.8686in" height="2.03016in" version="1.1" style="shape-rendering:geometricPrecision; text-rendering:geometricPrecision; image-rendering:optimizeQuality; fill-rule:evenodd; clip-rule:evenodd"
viewBox="0 0 83.48 90.7"
 xmlns:xlink="http://www.w3.org/1999/xlink"
 xmlns:xodm="http://www.corel.com/coreldraw/odm/2003">
 <defs>
  <style type="text/css">
   <![CDATA[
    .fil1 {fill:none;fill-rule:nonzero}
    .fil2 {fill:white;fill-rule:nonzero}
    .fil0 {fill:url(#id0);fill-rule:nonzero}
   ]]>
  </style>
  <linearGradient id="id0" gradientUnits="userSpaceOnUse" x1="41.74" y1="4.84" x2="41.74" y2="82.55">
   <stop offset="0" style="stop-opacity:1; stop-color:#3EC0C9"/>
   <stop offset="1" style="stop-opacity:1; stop-color:#00A4AA"/>
  </linearGradient>
 </defs>
 <g id="Layer_x0020_1">
  <metadata id="CorelCorpID_0Corel-Layer"/>
  <g id="_2356813012400">
   <path class="fil0" d="M9.21 74.76l23.33 13.47c5.7,3.29 12.71,3.29 18.41,0l23.33 -13.47c5.7,-3.29 9.21,-9.37 9.21,-15.94l0 -26.94c0,-6.58 -3.51,-12.66 -9.21,-15.94l-23.33 -13.47c-5.7,-3.29 -12.71,-3.29 -18.41,0l-23.33 13.47c-5.7,3.29 -9.21,9.37 -9.21,15.94l0 26.94c0,6.58 3.51,12.66 9.21,15.94z"/>
   <g>
    <line class="fil1" x1="12.38" y1="71.89" x2="33.43" y2= "84.05" />
    <path class="fil1" d="M33.43 84.05c5.14,2.97 11.48,2.97 16.62,0"/>
    <line class="fil1" x1="50.05" y1="84.05" x2="71.1" y2= "71.89" />
    <path class="fil1" d="M71.1 71.89c5.14,-2.97 8.31,-8.45 8.31,-14.39"/>
    <line class="fil1" x1="79.41" y1="57.5" x2="79.41" y2= "33.19" />
    <path class="fil1" d="M79.41 33.19c0,-5.94 -3.17,-11.42 -8.31,-14.39"/>
    <line class="fil1" x1="71.1" y1="18.8" x2="50.05" y2= "6.65" />
    <path class="fil1" d="M50.05 6.65c-5.14,-2.97 -11.48,-2.97 -16.62,0"/>
    <line class="fil1" x1="33.43" y1="6.65" x2="12.38" y2= "18.8" />
    <path class="fil1" d="M12.38 18.8c-5.14,2.97 -8.31,8.45 -8.31,14.39"/>
    <line class="fil1" x1="4.07" y1="33.19" x2="4.07" y2= "57.5" />
    <path class="fil1" d="M4.07 57.5c0,5.94 3.17,11.42 8.31,14.39"/>
   </g>
   <g>
    <path class="fil2" d="M9.21 74.76l23.33 13.47c5.7,3.29 12.71,3.29 18.41,0l23.33 -13.47c5.67,-3.28 9.18,-9.32 9.2,-15.87l-1.81 -1.54 -5.65 2.08 -5.35 -4.71 -16.57 11.74 -2.88 -0.69 -1.88 1.88 -1.78 -0.79 -4.56 2.18 -4.36 -3.26 -5.06 0.4 -3.67 -3.56 -6.05 0.1 -2.39 -1.07 -1.85 1.98 -5.33 -5.7 -5.48 6.43 -7.02 -5.39 -1.59 2.57c0.82,5.51 4.09,10.41 9,13.25z"/>
   </g>
  </g>
 </g>
</svg>
