<?xml version="1.0" encoding="UTF-8"?>
<!DOCTYPE svg PUBLIC "-//W3C//DTD SVG 1.1//EN" "http://www.w3.org/Graphics/SVG/1.1/DTD/svg11.dtd">
<!-- Creator: CorelDRAW -->
<svg xmlns="http://www.w3.org/2000/svg" xml:space="preserve" width="2.42881in" height="2.37932in" version="1.1" style="shape-rendering:geometricPrecision; text-rendering:geometricPrecision; image-rendering:optimizeQuality; fill-rule:evenodd; clip-rule:evenodd"
viewBox="0 0 174.44 170.89"
 xmlns:xlink="http://www.w3.org/1999/xlink"
 xmlns:xodm="http://www.corel.com/coreldraw/odm/2003">
 <defs>
  <style type="text/css">
   <![CDATA[
    .fil4 {fill:white;fill-rule:nonzero}
    .fil3 {fill:white;fill-rule:nonzero;fill-opacity:0.101961}
    .fil2 {fill:url(#id0);fill-rule:nonzero}
    .fil1 {fill:url(#id1);fill-rule:nonzero}
    .fil0 {fill:url(#id2);fill-rule:nonzero}
    .fil5 {fill:url(#id3);fill-rule:nonzero}
   ]]>
  </style>
  <linearGradient id="id0" gradientUnits="userSpaceOnUse" x1="17.06" y1="173.64" x2="171.69" y2="19">
   <stop offset="0" style="stop-opacity:1; stop-color:#09DCE0"/>
   <stop offset="1" style="stop-opacity:1; stop-color:#09A0A2"/>
  </linearGradient>
  <linearGradient id="id1" gradientUnits="userSpaceOnUse" x1="1.75" y1="66.96" x2="78.26" y2="39.12">
   <stop offset="0" style="stop-opacity:1; stop-color:#FBAE3E"/>
   <stop offset="1" style="stop-opacity:1; stop-color:#FFCC37"/>
  </linearGradient>
  <linearGradient id="id2" gradientUnits="userSpaceOnUse" x1="14.31" y1="25.61" x2="149.29" y2="25.61">
   <stop offset="0" style="stop-opacity:1; stop-color:#09A0A2"/>
   <stop offset="1" style="stop-opacity:1; stop-color:#09DCE0"/>
  </linearGradient>
  <linearGradient id="id3" gradientUnits="objectBoundingBox" xlink:href="#id1" x1="0%" y1="92.2021%" x2="100%" y2="7.79793%">
  </linearGradient>
 </defs>
 <g id="Layer_x0020_1">
  <metadata id="CorelCorpID_0Corel-Layer"/>
  <g id="_2393987144752">
   <polygon class="fil0" points="14.31,38.97 94.57,12.25 149.29,21.75 "/>
   <polygon class="fil1" points="78.26,41.69 1.75,69.54 1.75,64.39 78.26,36.55 "/>
   <polygon class="fil2" points="14.31,38.97 149.29,21.75 174.44,97.87 88.65,170.89 14.31,129.01 "/>
   <g>
    <polygon class="fil3" points="103.72,27.57 14.31,116.98 14.31,129.01 29.95,137.82 145.54,22.23 "/>
    <polygon class="fil3" points="154.74,38.24 150.21,24.53 34.41,140.33 46.07,146.9 "/>
   </g>
   <g>
    <polygon class="fil4" points="31.91,36.73 43.57,11.7 115.73,3.14 168.39,53.8 167.06,75.53 169.59,83.18 171.47,52.6 116.78,0 41.57,8.92 28.4,37.17 "/>
    <polygon class="fil4" points="165.2,105.73 164.12,123.42 56.67,162.84 3.51,97.65 14.31,74.48 14.31,67.39 -0,98.09 55.7,166.38 166.98,125.55 168.37,103.04 "/>
   </g>
   <polygon class="fil5" points="132.63,9.38 56.12,37.23 56.12,32.09 132.63,4.24 "/>
   <polygon class="fil5" points="110.39,134.42 33.89,162.26 33.89,157.12 110.39,129.28 "/>
  </g>
 </g>
</svg>
