<?xml version="1.0" encoding="UTF-8"?>
<!DOCTYPE svg PUBLIC "-//W3C//DTD SVG 1.1//EN" "http://www.w3.org/Graphics/SVG/1.1/DTD/svg11.dtd">
<!-- Creator: CorelDRAW -->
<svg xmlns="http://www.w3.org/2000/svg" xml:space="preserve" width="1.98084in" height="1.98084in" version="1.1" style="shape-rendering:geometricPrecision; text-rendering:geometricPrecision; image-rendering:optimizeQuality; fill-rule:evenodd; clip-rule:evenodd"
viewBox="0 0 123.16 123.16"
 xmlns:xlink="http://www.w3.org/1999/xlink"
 xmlns:xodm="http://www.corel.com/coreldraw/odm/2003">
 <defs>
  <style type="text/css">
   <![CDATA[
    .fil0 {fill:white}
    .fil1 {fill:url(#id0);fill-rule:nonzero}
    .fil4 {fill:url(#id1);fill-rule:nonzero}
    .fil3 {fill:url(#id2);fill-rule:nonzero}
    .fil2 {fill:url(#id3);fill-rule:nonzero;fill-opacity:0.501961}
   ]]>
  </style>
  <linearGradient id="id0" gradientUnits="userSpaceOnUse" x1="18.58" y1="61.58" x2="105.88" y2="61.58">
   <stop offset="0" style="stop-opacity:1; stop-color:#EDBC31"/>
   <stop offset="1" style="stop-opacity:1; stop-color:#DD491F"/>
  </linearGradient>
  <linearGradient id="id1" gradientUnits="userSpaceOnUse" xlink:href="#id0" x1="51.64" y1="111.41" x2="55.3" y2="111.41">
  </linearGradient>
  <linearGradient id="id2" gradientUnits="userSpaceOnUse" xlink:href="#id0" x1="58.85" y1="61.58" x2="112.18" y2="61.58">
  </linearGradient>
  <linearGradient id="id3" gradientUnits="userSpaceOnUse" xlink:href="#id0" x1="62.23" y1="14.63" x2="62.23" y2="93.16">
  </linearGradient>
 </defs>
 <g id="Layer_x0020_1">
  <metadata id="CorelCorpID_0Corel-Layer"/>
  <circle class="fil0" cx="61.58" cy="61.58" r="61.58"/>
  <path class="fil1" d="M93.1 92.45l0 0 0.2 -0.2 0.2 -0.2 0.2 -0.2 0.19 -0.2 0.19 -0.2 0.19 -0.21 0.19 -0.21 0.19 -0.21 0.19 -0.21 0.18 -0.21 0.18 -0.21 0.18 -0.21 0.18 -0.21 0.18 -0.21 0.18 -0.21 0.18 -0.21 0.17 -0.21 0.17 -0.22 0.17 -0.22 0.17 -0.22 0.17 -0.22 0.17 -0.22 0.16 -0.22 0.16 -0.22 0.16 -0.22 0.16 -0.22 0.16 -0.22 0.16 -0.22 0.16 -0.22 0.15 -0.22 0.15 -0.23 0.15 -0.23 0.15 -0.23 0.15 -0.23 0.15 -0.23 0.14 -0.23 0.14 -0.23 0.14 -0.23 0.14 -0.23 0.14 -0.23 0.14 -0.23 0.13 -0.23 0.13 -0.23 0.13 -0.23 0.13 -0.24 0.13 -0.24 0.13 -0.24 0.13 -0.24 0.12 -0.24 0.12 -0.24 0.12 -0.24 0.12 -0.24 0.12 -0.24 0.12 -0.24 0.11 -0.24 0.11 -0.24 0.11 -0.24 0.11 -0.24 0.11 -0.24 0.11 -0.24 0.11 -0.24 0.1 -0.25 0.1 -0.25 0.1 -0.25 0.1 -0.25 0.1 -0.25 0.1 -0.25 0.09 -0.25 0.09 -0.25 0.09 -0.25 0.09 -0.25 0.09 -0.25 0.09 -0.25 0.08 -0.25 0.08 -0.25 0.08 -0.25 0.08 -0.25 0.08 -0.25 0.08 -0.25 0.08 -0.25 0.07 -0.25 0.07 -0.25 0.07 -0.25 0.07 -0.25 0.07 -0.26 0.07 -0.25 0.06 -0.26 0.06 -0.26 0.06 -0.26 0.06 -0.26 0.06 -0.26 0.06 -0.26 0.06 -0.26 0.05 -0.26 0.05 -0.26 0.05 -0.26 0.05 -0.26 0.05 -0.26 0.05 -0.26 0.04 -0.26 0.04 -0.26 0.04 -0.26 0.04 -0.26 0.04 -0.26 0.04 -0.26 0.04 -0.26 0.03 -0.26 0.03 -0.26 0.03 -0.26 0.03 -0.26 0.03 -0.26 0.03 -0.26 0.02 -0.26 0.02 -0.26 0.02 -0.26 0.02 -0.26 0.02 -0.26 0.02 -0.26 0.01 -0.26 0.01 -0.26 0.01 -0.26 0.01 -0.26 0.01 -0.26 0.01 -0.26 0.01 -0.26 0 -0.26 0 -0.26 0 -0.26 -0 -0.26 -0 -0.26 -0 -0.26 -0.01 -0.26 -0.01 -0.26 -0.01 -0.26 -0.01 -0.26 -0.01 -0.26 -0.01 -0.26 -0.01 -0.26 -0.02 -0.26 -0.02 -0.26 -0.02 -0.26 -0.02 -0.26 -0.02 -0.26 -0.02 -0.26 -0.03 -0.26 -0.03 -0.26 -0.03 -0.26 -0.03 -0.26 -0.03 -0.26 -0.03 -0.26 -0.04 -0.26 -0.04 -0.26 -0.04 -0.26 -0.04 -0.26 -0.04 -0.26 -0.04 -0.26 -0.04 -0.26 -0.05 -0.26 -0.05 -0.26 -0.05 -0.26 -0.05 -0.26 -0.05 -0.26 -0.05 -0.26 -0.06 -0.26 -0.06 -0.26 -0.06 -0.26 -0.06 -0.26 -0.06 -0.26 -0.06 -0.26 -0.06 -0.26 -0.07 -0.25 -0.07 -0.25 -0.07 -0.25 -0.07 -0.25 -0.07 -0.25 -0.07 -0.25 -0.08 -0.25 -0.08 -0.25 -0.08 -0.25 -0.08 -0.25 -0.08 -0.25 -0.08 -0.25 -0.08 -0.25 -0.09 -0.25 -0.09 -0.25 -0.09 -0.25 -0.09 -0.25 -0.09 -0.25 -0.09 -0.25 -0.1 -0.25 -0.1 -0.25 -0.1 -0.25 -0.1 -0.25 -0.1 -0.25 -0.1 -0.25 -0.11 -0.24 -0.11 -0.24 -0.11 -0.24 -0.11 -0.24 -0.11 -0.24 -0.11 -0.24 -0.11 -0.24 -0.12 -0.24 -0.12 -0.24 -0.12 -0.24 -0.12 -0.24 -0.12 -0.24 -0.12 -0.24 -0.13 -0.24 -0.13 -0.24 -0.13 -0.24 -0.13 -0.24 -0.13 -0.23 -0.13 -0.23 -0.13 -0.23 -0.14 -0.23 -0.14 -0.23 -0.14 -0.23 -0.14 -0.23 -0.14 -0.23 -0.14 -0.23 -0.15 -0.23 -0.15 -0.23 -0.15 -0.23 -0.15 -0.23 -0.15 -0.23 -0.15 -0.23 -0.16 -0.22 -0.16 -0.22 -0.16 -0.22 -0.16 -0.22 -0.16 -0.22 -0.16 -0.22 -0.16 -0.22 -0.17 -0.22 -0.17 -0.22 -0.17 -0.22 -0.17 -0.22 -0.17 -0.22 -0.17 -0.21 -0.18 -0.21 -0.18 -0.21 -0.18 -0.21 -0.18 -0.21 -0.18 -0.21 -0.18 -0.21 -0.18 -0.21 -0.19 -0.21 -0.19 -0.21 -0.19 -0.21 -0.19 -0.21 -0.19 -0.2 -0.19 -0.2 -0.2 -0.2 -0.2 -0.2 -0.2 -0.2 -1.27 1.27 0.19 0.19 0.19 0.19 0.19 0.19 0.19 0.19 0.18 0.2 0.18 0.2 0.18 0.2 0.18 0.2 0.18 0.2 0.18 0.2 0.18 0.2 0.17 0.2 0.17 0.2 0.17 0.2 0.17 0.2 0.17 0.21 0.17 0.21 0.17 0.21 0.16 0.21 0.16 0.21 0.16 0.21 0.16 0.21 0.16 0.21 0.16 0.21 0.15 0.21 0.15 0.21 0.15 0.21 0.15 0.21 0.15 0.22 0.15 0.22 0.15 0.22 0.14 0.22 0.14 0.22 0.14 0.22 0.14 0.22 0.14 0.22 0.14 0.22 0.14 0.22 0.13 0.22 0.13 0.22 0.13 0.22 0.13 0.22 0.13 0.22 0.13 0.23 0.12 0.23 0.12 0.23 0.12 0.23 0.12 0.23 0.12 0.23 0.12 0.23 0.12 0.23 0.11 0.23 0.11 0.23 0.11 0.23 0.11 0.23 0.11 0.23 0.11 0.23 0.11 0.23 0.1 0.23 0.1 0.23 0.1 0.23 0.1 0.23 0.1 0.24 0.1 0.24 0.09 0.24 0.09 0.24 0.09 0.24 0.09 0.24 0.09 0.24 0.09 0.24 0.09 0.24 0.08 0.24 0.08 0.24 0.08 0.24 0.08 0.24 0.08 0.24 0.08 0.24 0.08 0.24 0.07 0.24 0.07 0.24 0.07 0.24 0.07 0.24 0.07 0.24 0.07 0.24 0.07 0.24 0.06 0.24 0.06 0.25 0.06 0.24 0.06 0.25 0.06 0.25 0.06 0.25 0.05 0.25 0.05 0.25 0.05 0.25 0.05 0.25 0.05 0.25 0.05 0.25 0.05 0.25 0.04 0.25 0.04 0.25 0.04 0.25 0.04 0.25 0.04 0.25 0.04 0.25 0.04 0.25 0.03 0.25 0.03 0.25 0.03 0.25 0.03 0.25 0.03 0.25 0.03 0.25 0.02 0.25 0.02 0.25 0.02 0.25 0.02 0.25 0.02 0.25 0.02 0.25 0.02 0.25 0.01 0.25 0.01 0.25 0.01 0.25 0.01 0.25 0.01 0.25 0.01 0.25 0.01 0.25 0 0.25 0 0.25 0 0.25 -0 0.25 -0 0.25 -0 0.25 -0.01 0.25 -0.01 0.25 -0.01 0.25 -0.01 0.25 -0.01 0.25 -0.01 0.25 -0.01 0.25 -0.02 0.25 -0.02 0.25 -0.02 0.25 -0.02 0.25 -0.02 0.25 -0.02 0.25 -0.02 0.25 -0.03 0.25 -0.03 0.25 -0.03 0.25 -0.03 0.25 -0.03 0.25 -0.03 0.25 -0.04 0.25 -0.04 0.25 -0.04 0.25 -0.04 0.25 -0.04 0.25 -0.04 0.25 -0.04 0.25 -0.05 0.25 -0.05 0.25 -0.05 0.25 -0.05 0.25 -0.05 0.25 -0.05 0.25 -0.05 0.25 -0.06 0.25 -0.06 0.25 -0.06 0.25 -0.06 0.25 -0.06 0.24 -0.06 0.24 -0.07 0.24 -0.07 0.24 -0.07 0.24 -0.07 0.24 -0.07 0.24 -0.07 0.24 -0.07 0.24 -0.08 0.24 -0.08 0.24 -0.08 0.24 -0.08 0.24 -0.08 0.24 -0.08 0.24 -0.08 0.24 -0.09 0.24 -0.09 0.24 -0.09 0.24 -0.09 0.24 -0.09 0.24 -0.09 0.24 -0.09 0.24 -0.1 0.24 -0.1 0.24 -0.1 0.23 -0.1 0.23 -0.1 0.23 -0.1 0.23 -0.11 0.23 -0.11 0.23 -0.11 0.23 -0.11 0.23 -0.11 0.23 -0.11 0.23 -0.11 0.23 -0.12 0.23 -0.12 0.23 -0.12 0.23 -0.12 0.23 -0.12 0.23 -0.12 0.23 -0.12 0.23 -0.13 0.23 -0.13 0.22 -0.13 0.22 -0.13 0.22 -0.13 0.22 -0.13 0.22 -0.14 0.22 -0.14 0.22 -0.14 0.22 -0.14 0.22 -0.14 0.22 -0.14 0.22 -0.14 0.22 -0.15 0.22 -0.15 0.22 -0.15 0.22 -0.15 0.21 -0.15 0.21 -0.15 0.21 -0.15 0.21 -0.16 0.21 -0.16 0.21 -0.16 0.21 -0.16 0.21 -0.16 0.21 -0.16 0.21 -0.17 0.21 -0.17 0.21 -0.17 0.2 -0.17 0.2 -0.17 0.2 -0.17 0.2 -0.17 0.2 -0.18 0.2 -0.18 0.2 -0.18 0.2 -0.18 0.2 -0.18 0.2 -0.18 0.2 -0.18 0.2 -0.19 0.19 -0.19 0.19 -0.19 0.19 -0.19 0.19 0 0zm-60.47 1.27l0 0 0.2 0.2 0.2 0.2 0.2 0.2 0.2 0.19 0.2 0.19 0.2 0.19 0.21 0.19 0.21 0.19 0.21 0.19 0.21 0.18 0.21 0.18 0.21 0.18 0.21 0.18 0.21 0.18 0.21 0.18 0.21 0.18 0.21 0.17 0.22 0.17 0.22 0.17 0.22 0.17 0.22 0.17 0.22 0.17 0.22 0.16 0.22 0.16 0.22 0.16 0.22 0.16 0.22 0.16 0.22 0.16 0.22 0.16 0.22 0.15 0.23 0.15 0.23 0.15 0.23 0.15 0.23 0.15 0.23 0.15 0.23 0.14 0.23 0.14 0.23 0.14 0.23 0.14 0.23 0.14 0.23 0.14 0.23 0.14 0.23 0.13 0.24 0.13 0.24 0.13 0.24 0.13 0.24 0.13 0.24 0.13 0.24 0.12 0.24 0.12 0.24 0.12 0.24 0.12 0.24 0.12 0.24 0.12 0.24 0.11 0.24 0.11 0.24 0.11 0.24 0.11 0.24 0.11 0.24 0.11 0.24 0.11 0.25 0.1 0.25 0.1 0.25 0.1 0.25 0.1 0.25 0.1 0.25 0.1 0.25 0.09 0.25 0.09 0.25 0.09 0.25 0.09 0.25 0.09 0.25 0.09 0.25 0.09 0.25 0.08 0.25 0.08 0.25 0.08 0.25 0.08 0.25 0.08 0.25 0.08 0.25 0.07 0.25 0.07 0.25 0.07 0.25 0.07 0.26 0.07 0.26 0.07 0.26 0.06 0.26 0.06 0.26 0.06 0.26 0.06 0.26 0.06 0.26 0.06 0.26 0.06 0.26 0.05 0.26 0.05 0.26 0.05 0.26 0.05 0.26 0.05 0.26 0.05 0.26 0.04 0.26 0.04 0.26 0.04 0.26 0.04 0.26 0.04 0.26 0.04 0.26 0.04 0.26 0.03 0.26 0.03 0.26 0.03 0.26 0.03 0.26 0.03 0.26 0.03 0.26 0.02 0.26 0.02 0.26 0.02 0.26 0.02 0.26 0.02 0.26 0.02 0.26 0.02 0.26 0.01 0.26 0.01 0.26 0.01 0.26 0.01 0.26 0.01 0.26 0.01 0.26 0 0.26 0 0.26 0 0.26 -0 0.26 -0 0.26 -0 0.26 -0.01 0.26 -0.01 0.26 -0.01 0.26 -0.01 0.26 -0.01 0.26 -0.01 0.26 -0.02 0.26 -0.02 0.26 -0.02 0.26 -0.02 0.26 -0.02 0.26 -0.02 0.26 -0.02 0.26 -0.03 0.26 -0.03 0.26 -0.03 0.26 -0.03 0.26 -0.03 0.26 -0.03 0.26 -0.04 0.26 -0.04 0.26 -0.04 0.26 -0.04 0.26 -0.04 0.26 -0.04 0.26 -0.04 0.26 -0.05 0.26 -0.05 0.26 -0.05 0.26 -0.05 0.26 -0.05 0.26 -0.05 0.26 -0.06 0.26 -0.06 0.26 -0.06 0.26 -0.06 0.26 -0.06 0.26 -0.06 0.25 -0.06 0.26 -0.07 0.25 -0.07 0.25 -0.07 0.25 -0.07 0.25 -0.07 0.25 -0.07 0.25 -0.08 0.25 -0.08 0.25 -0.08 0.25 -0.08 0.25 -0.08 0.25 -0.08 0.25 -0.09 0.25 -0.09 0.25 -0.09 0.25 -0.09 0.25 -0.09 0.25 -0.09 0.25 -0.09 0.25 -0.1 0.25 -0.1 0.25 -0.1 0.25 -0.1 0.25 -0.1 0.25 -0.1 0.24 -0.11 0.24 -0.11 0.24 -0.11 0.24 -0.11 0.24 -0.11 0.24 -0.11 0.24 -0.11 0.24 -0.12 0.24 -0.12 0.24 -0.12 0.24 -0.12 0.24 -0.12 0.24 -0.12 0.24 -0.13 0.24 -0.13 0.24 -0.13 0.24 -0.13 0.23 -0.13 0.23 -0.13 0.23 -0.14 0.23 -0.14 0.23 -0.14 0.23 -0.14 0.23 -0.14 0.23 -0.14 0.23 -0.14 0.23 -0.15 0.23 -0.15 0.23 -0.15 0.23 -0.15 0.23 -0.15 0.22 -0.15 0.22 -0.16 0.22 -0.16 0.22 -0.16 0.22 -0.16 0.22 -0.16 0.22 -0.16 0.22 -0.16 0.22 -0.17 0.22 -0.17 0.22 -0.17 0.22 -0.17 0.22 -0.17 0.21 -0.17 0.21 -0.18 0.21 -0.18 0.21 -0.18 0.21 -0.18 0.21 -0.18 0.21 -0.18 0.21 -0.18 0.21 -0.19 0.21 -0.19 0.21 -0.19 0.2 -0.19 0.2 -0.19 0.2 -0.19 0.2 -0.2 0.2 -0.2 0.2 -0.2 -1.27 -1.27 -0.19 0.19 -0.19 0.19 -0.19 0.19 -0.19 0.19 -0.2 0.18 -0.2 0.18 -0.2 0.18 -0.2 0.18 -0.2 0.18 -0.2 0.18 -0.2 0.18 -0.2 0.17 -0.2 0.17 -0.2 0.17 -0.2 0.17 -0.2 0.17 -0.21 0.17 -0.21 0.17 -0.21 0.16 -0.21 0.16 -0.21 0.16 -0.21 0.16 -0.21 0.16 -0.21 0.16 -0.21 0.15 -0.21 0.15 -0.21 0.15 -0.21 0.15 -0.22 0.15 -0.22 0.15 -0.22 0.15 -0.22 0.14 -0.22 0.14 -0.22 0.14 -0.22 0.14 -0.22 0.14 -0.22 0.14 -0.22 0.14 -0.22 0.13 -0.22 0.13 -0.22 0.13 -0.22 0.13 -0.22 0.13 -0.22 0.13 -0.23 0.12 -0.23 0.12 -0.23 0.12 -0.23 0.12 -0.23 0.12 -0.23 0.12 -0.23 0.12 -0.23 0.11 -0.23 0.11 -0.23 0.11 -0.23 0.11 -0.23 0.11 -0.23 0.11 -0.23 0.11 -0.23 0.1 -0.23 0.1 -0.23 0.1 -0.23 0.1 -0.24 0.1 -0.24 0.1 -0.24 0.1 -0.24 0.09 -0.24 0.09 -0.24 0.09 -0.24 0.09 -0.24 0.09 -0.24 0.09 -0.24 0.08 -0.24 0.08 -0.24 0.08 -0.24 0.08 -0.24 0.08 -0.24 0.08 -0.24 0.08 -0.24 0.07 -0.24 0.07 -0.24 0.07 -0.24 0.07 -0.24 0.07 -0.24 0.07 -0.24 0.07 -0.24 0.06 -0.25 0.06 -0.24 0.06 -0.25 0.06 -0.25 0.06 -0.25 0.06 -0.25 0.05 -0.25 0.05 -0.25 0.05 -0.25 0.05 -0.25 0.05 -0.25 0.05 -0.25 0.05 -0.25 0.04 -0.25 0.04 -0.25 0.04 -0.25 0.04 -0.25 0.04 -0.25 0.04 -0.25 0.04 -0.25 0.03 -0.25 0.03 -0.25 0.03 -0.25 0.03 -0.25 0.03 -0.25 0.03 -0.25 0.02 -0.25 0.02 -0.25 0.02 -0.25 0.02 -0.25 0.02 -0.25 0.02 -0.25 0.02 -0.25 0.01 -0.25 0.01 -0.25 0.01 -0.25 0.01 -0.25 0.01 -0.25 0.01 -0.25 0.01 -0.25 0 -0.25 0 -0.25 0 -0.25 -0 -0.25 -0 -0.25 -0 -0.25 -0.01 -0.25 -0.01 -0.25 -0.01 -0.25 -0.01 -0.25 -0.01 -0.25 -0.01 -0.25 -0.01 -0.25 -0.02 -0.25 -0.02 -0.25 -0.02 -0.25 -0.02 -0.25 -0.02 -0.25 -0.02 -0.25 -0.02 -0.25 -0.03 -0.25 -0.03 -0.25 -0.03 -0.25 -0.03 -0.25 -0.03 -0.25 -0.03 -0.25 -0.04 -0.25 -0.04 -0.25 -0.04 -0.25 -0.04 -0.25 -0.04 -0.25 -0.04 -0.25 -0.04 -0.25 -0.05 -0.25 -0.05 -0.25 -0.05 -0.25 -0.05 -0.25 -0.05 -0.25 -0.05 -0.25 -0.05 -0.25 -0.06 -0.25 -0.06 -0.25 -0.06 -0.25 -0.06 -0.25 -0.06 -0.24 -0.06 -0.24 -0.07 -0.24 -0.07 -0.24 -0.07 -0.24 -0.07 -0.24 -0.07 -0.24 -0.07 -0.24 -0.07 -0.24 -0.08 -0.24 -0.08 -0.24 -0.08 -0.24 -0.08 -0.24 -0.08 -0.24 -0.08 -0.24 -0.08 -0.24 -0.09 -0.24 -0.09 -0.24 -0.09 -0.24 -0.09 -0.24 -0.09 -0.24 -0.09 -0.24 -0.09 -0.24 -0.1 -0.24 -0.1 -0.24 -0.1 -0.23 -0.1 -0.23 -0.1 -0.23 -0.1 -0.23 -0.11 -0.23 -0.11 -0.23 -0.11 -0.23 -0.11 -0.23 -0.11 -0.23 -0.11 -0.23 -0.11 -0.23 -0.12 -0.23 -0.12 -0.23 -0.12 -0.23 -0.12 -0.23 -0.12 -0.23 -0.12 -0.23 -0.13 -0.22 -0.13 -0.22 -0.13 -0.22 -0.13 -0.22 -0.13 -0.22 -0.13 -0.22 -0.13 -0.22 -0.14 -0.22 -0.14 -0.22 -0.14 -0.22 -0.14 -0.22 -0.14 -0.22 -0.14 -0.22 -0.14 -0.22 -0.15 -0.22 -0.15 -0.21 -0.15 -0.21 -0.15 -0.21 -0.15 -0.21 -0.15 -0.21 -0.15 -0.21 -0.16 -0.21 -0.16 -0.21 -0.16 -0.21 -0.16 -0.21 -0.16 -0.21 -0.16 -0.21 -0.17 -0.21 -0.17 -0.2 -0.17 -0.2 -0.17 -0.2 -0.17 -0.2 -0.17 -0.2 -0.17 -0.2 -0.18 -0.2 -0.18 -0.2 -0.18 -0.2 -0.18 -0.2 -0.18 -0.2 -0.18 -0.2 -0.18 -0.19 -0.19 -0.19 -0.19 -0.19 -0.19 -0.19 -0.19 0 0zm-1.27 -60.47l0 0 -0.2 0.2 -0.2 0.2 -0.2 0.2 -0.19 0.2 -0.19 0.2 -0.19 0.21 -0.19 0.21 -0.19 0.21 -0.19 0.21 -0.18 0.21 -0.18 0.21 -0.18 0.21 -0.18 0.21 -0.18 0.21 -0.18 0.21 -0.18 0.21 -0.17 0.21 -0.17 0.22 -0.17 0.22 -0.17 0.22 -0.17 0.22 -0.17 0.22 -0.16 0.22 -0.16 0.22 -0.16 0.22 -0.16 0.22 -0.16 0.22 -0.16 0.22 -0.16 0.22 -0.15 0.23 -0.15 0.23 -0.15 0.23 -0.15 0.23 -0.15 0.23 -0.15 0.23 -0.14 0.23 -0.14 0.23 -0.14 0.23 -0.14 0.23 -0.14 0.23 -0.14 0.23 -0.14 0.23 -0.13 0.23 -0.13 0.23 -0.13 0.24 -0.13 0.24 -0.13 0.24 -0.13 0.24 -0.12 0.24 -0.12 0.24 -0.12 0.24 -0.12 0.24 -0.12 0.24 -0.12 0.24 -0.11 0.24 -0.11 0.24 -0.11 0.24 -0.11 0.24 -0.11 0.24 -0.11 0.24 -0.11 0.24 -0.1 0.25 -0.1 0.25 -0.1 0.25 -0.1 0.25 -0.1 0.25 -0.1 0.25 -0.09 0.25 -0.09 0.25 -0.09 0.25 -0.09 0.25 -0.09 0.25 -0.09 0.25 -0.08 0.25 -0.08 0.25 -0.08 0.25 -0.08 0.25 -0.08 0.25 -0.08 0.25 -0.08 0.25 -0.07 0.25 -0.07 0.25 -0.07 0.25 -0.07 0.25 -0.07 0.25 -0.07 0.25 -0.06 0.26 -0.06 0.26 -0.06 0.26 -0.06 0.26 -0.06 0.26 -0.06 0.26 -0.06 0.26 -0.05 0.26 -0.05 0.26 -0.05 0.26 -0.05 0.26 -0.05 0.26 -0.05 0.26 -0.04 0.26 -0.04 0.26 -0.04 0.26 -0.04 0.26 -0.04 0.26 -0.04 0.26 -0.04 0.26 -0.03 0.26 -0.03 0.26 -0.03 0.26 -0.03 0.26 -0.03 0.26 -0.03 0.26 -0.02 0.26 -0.02 0.26 -0.02 0.26 -0.02 0.26 -0.02 0.26 -0.02 0.26 -0.01 0.26 -0.01 0.26 -0.01 0.26 -0.01 0.26 -0.01 0.26 -0.01 0.26 -0.01 0.26 -0 0.26 -0 0.26 -0 0.26 0 0.26 0 0.26 0 0.26 0.01 0.26 0.01 0.26 0.01 0.26 0.01 0.26 0.01 0.26 0.01 0.26 0.01 0.26 0.02 0.26 0.02 0.26 0.02 0.26 0.02 0.26 0.02 0.26 0.02 0.26 0.03 0.26 0.03 0.26 0.03 0.26 0.03 0.26 0.03 0.26 0.03 0.26 0.04 0.26 0.04 0.26 0.04 0.26 0.04 0.26 0.04 0.26 0.04 0.26 0.04 0.26 0.05 0.26 0.05 0.26 0.05 0.26 0.05 0.26 0.05 0.26 0.05 0.26 0.06 0.26 0.06 0.26 0.06 0.26 0.06 0.26 0.06 0.26 0.06 0.26 0.06 0.26 0.07 0.25 0.07 0.26 0.07 0.25 0.07 0.25 0.07 0.25 0.07 0.25 0.08 0.25 0.08 0.25 0.08 0.25 0.08 0.25 0.08 0.25 0.08 0.25 0.08 0.25 0.09 0.25 0.09 0.25 0.09 0.25 0.09 0.25 0.09 0.25 0.09 0.25 0.1 0.25 0.1 0.25 0.1 0.25 0.1 0.25 0.1 0.25 0.1 0.25 0.11 0.24 0.11 0.24 0.11 0.24 0.11 0.24 0.11 0.24 0.11 0.24 0.11 0.24 0.12 0.24 0.12 0.24 0.12 0.24 0.12 0.24 0.12 0.24 0.12 0.24 0.13 0.24 0.13 0.24 0.13 0.24 0.13 0.24 0.13 0.23 0.13 0.23 0.14 0.23 0.14 0.23 0.14 0.23 0.14 0.23 0.14 0.23 0.14 0.23 0.14 0.23 0.15 0.23 0.15 0.23 0.15 0.23 0.15 0.23 0.15 0.23 0.15 0.22 0.16 0.22 0.16 0.22 0.16 0.22 0.16 0.22 0.16 0.22 0.16 0.22 0.16 0.22 0.17 0.22 0.17 0.22 0.17 0.22 0.17 0.22 0.17 0.22 0.17 0.21 0.18 0.21 0.18 0.21 0.18 0.21 0.18 0.21 0.18 0.21 0.18 0.21 0.19 0.21 0.19 0.21 0.19 0.21 0.19 0.21 0.19 0.21 0.19 0.2 0.19 0.2 0.2 0.2 0.2 0.2 0.2 0.2 1.27 -1.27 -0.19 -0.19 -0.19 -0.19 -0.19 -0.19 -0.19 -0.19 -0.18 -0.2 -0.18 -0.2 -0.18 -0.2 -0.18 -0.2 -0.18 -0.2 -0.18 -0.2 -0.18 -0.2 -0.17 -0.2 -0.17 -0.2 -0.17 -0.2 -0.17 -0.2 -0.17 -0.2 -0.17 -0.21 -0.17 -0.21 -0.16 -0.21 -0.16 -0.21 -0.16 -0.21 -0.16 -0.21 -0.16 -0.21 -0.16 -0.21 -0.15 -0.21 -0.15 -0.21 -0.15 -0.21 -0.15 -0.21 -0.15 -0.22 -0.15 -0.22 -0.15 -0.22 -0.14 -0.22 -0.14 -0.22 -0.14 -0.22 -0.14 -0.22 -0.14 -0.22 -0.14 -0.22 -0.14 -0.22 -0.13 -0.22 -0.13 -0.22 -0.13 -0.22 -0.13 -0.22 -0.13 -0.22 -0.13 -0.23 -0.13 -0.23 -0.12 -0.23 -0.12 -0.23 -0.12 -0.23 -0.12 -0.23 -0.12 -0.23 -0.12 -0.23 -0.11 -0.23 -0.11 -0.23 -0.11 -0.23 -0.11 -0.23 -0.11 -0.23 -0.11 -0.23 -0.11 -0.23 -0.1 -0.23 -0.1 -0.23 -0.1 -0.23 -0.1 -0.23 -0.1 -0.24 -0.1 -0.24 -0.1 -0.24 -0.09 -0.24 -0.09 -0.24 -0.09 -0.24 -0.09 -0.24 -0.09 -0.24 -0.09 -0.24 -0.08 -0.24 -0.08 -0.24 -0.08 -0.24 -0.08 -0.24 -0.08 -0.24 -0.08 -0.24 -0.08 -0.24 -0.07 -0.24 -0.07 -0.24 -0.07 -0.24 -0.07 -0.24 -0.07 -0.24 -0.07 -0.24 -0.06 -0.24 -0.06 -0.24 -0.06 -0.24 -0.06 -0.25 -0.06 -0.25 -0.06 -0.25 -0.06 -0.25 -0.05 -0.25 -0.05 -0.25 -0.05 -0.25 -0.05 -0.25 -0.05 -0.25 -0.05 -0.25 -0.05 -0.25 -0.04 -0.25 -0.04 -0.25 -0.04 -0.25 -0.04 -0.25 -0.04 -0.25 -0.04 -0.25 -0.04 -0.25 -0.03 -0.25 -0.03 -0.25 -0.03 -0.25 -0.03 -0.25 -0.03 -0.25 -0.03 -0.25 -0.02 -0.25 -0.02 -0.25 -0.02 -0.25 -0.02 -0.25 -0.02 -0.25 -0.02 -0.25 -0.02 -0.25 -0.01 -0.25 -0.01 -0.25 -0.01 -0.25 -0.01 -0.25 -0.01 -0.25 -0.01 -0.25 -0.01 -0.25 -0 -0.25 -0 -0.25 -0 -0.25 0 -0.25 0 -0.25 0 -0.25 0.01 -0.25 0.01 -0.25 0.01 -0.25 0.01 -0.25 0.01 -0.25 0.01 -0.25 0.01 -0.25 0.02 -0.25 0.02 -0.25 0.02 -0.25 0.02 -0.25 0.02 -0.25 0.02 -0.25 0.02 -0.25 0.03 -0.25 0.03 -0.25 0.03 -0.25 0.03 -0.25 0.03 -0.25 0.03 -0.25 0.04 -0.25 0.04 -0.25 0.04 -0.25 0.04 -0.25 0.04 -0.25 0.04 -0.25 0.04 -0.25 0.05 -0.25 0.05 -0.25 0.05 -0.25 0.05 -0.25 0.05 -0.25 0.05 -0.25 0.05 -0.25 0.06 -0.25 0.06 -0.25 0.06 -0.25 0.06 -0.24 0.06 -0.25 0.06 -0.24 0.06 -0.24 0.07 -0.24 0.07 -0.24 0.07 -0.24 0.07 -0.24 0.07 -0.24 0.07 -0.24 0.08 -0.24 0.08 -0.24 0.08 -0.24 0.08 -0.24 0.08 -0.24 0.08 -0.24 0.08 -0.24 0.09 -0.24 0.09 -0.24 0.09 -0.24 0.09 -0.24 0.09 -0.24 0.09 -0.24 0.1 -0.24 0.1 -0.24 0.1 -0.24 0.1 -0.23 0.1 -0.23 0.1 -0.23 0.1 -0.23 0.11 -0.23 0.11 -0.23 0.11 -0.23 0.11 -0.23 0.11 -0.23 0.11 -0.23 0.11 -0.23 0.12 -0.23 0.12 -0.23 0.12 -0.23 0.12 -0.23 0.12 -0.23 0.12 -0.23 0.13 -0.23 0.13 -0.23 0.13 -0.22 0.13 -0.22 0.13 -0.22 0.13 -0.22 0.13 -0.22 0.14 -0.22 0.14 -0.22 0.14 -0.22 0.14 -0.22 0.14 -0.22 0.14 -0.22 0.14 -0.22 0.15 -0.22 0.15 -0.22 0.15 -0.22 0.15 -0.21 0.15 -0.21 0.15 -0.21 0.15 -0.21 0.16 -0.21 0.16 -0.21 0.16 -0.21 0.16 -0.21 0.16 -0.21 0.16 -0.21 0.17 -0.21 0.17 -0.21 0.17 -0.21 0.17 -0.2 0.17 -0.2 0.17 -0.2 0.17 -0.2 0.18 -0.2 0.18 -0.2 0.18 -0.2 0.18 -0.2 0.18 -0.2 0.18 -0.2 0.18 -0.2 0.19 -0.19 0.19 -0.19 0.19 -0.19 0.19 -0.19 0 0zm60.47 -1.27l-0.2 -0.2 -0.2 -0.2 -0.2 -0.2 -0.2 -0.19 -0.2 -0.19 -0.2 -0.19 -0.21 -0.19 -0.21 -0.19 -0.21 -0.19 -0.21 -0.18 -0.21 -0.18 -0.21 -0.18 -0.21 -0.18 -0.21 -0.18 -0.21 -0.18 -0.21 -0.18 -0.21 -0.17 -0.22 -0.17 -0.22 -0.17 -0.22 -0.17 -0.22 -0.17 -0.22 -0.17 -0.22 -0.16 -0.22 -0.16 -0.22 -0.16 -0.22 -0.16 -0.22 -0.16 -0.22 -0.16 -0.22 -0.16 -0.23 -0.15 -0.23 -0.15 -0.23 -0.15 -0.23 -0.15 -0.23 -0.15 -0.23 -0.15 -0.23 -0.14 -0.23 -0.14 -0.23 -0.14 -0.23 -0.14 -0.23 -0.14 -0.23 -0.14 -0.23 -0.14 -0.23 -0.13 -0.23 -0.13 -0.24 -0.13 -0.24 -0.13 -0.24 -0.13 -0.24 -0.13 -0.24 -0.12 -0.24 -0.12 -0.24 -0.12 -0.24 -0.12 -0.24 -0.12 -0.24 -0.12 -0.24 -0.11 -0.24 -0.11 -0.24 -0.11 -0.24 -0.11 -0.24 -0.11 -0.24 -0.11 -0.24 -0.11 -0.25 -0.1 -0.25 -0.1 -0.25 -0.1 -0.25 -0.1 -0.25 -0.1 -0.25 -0.1 -0.25 -0.09 -0.25 -0.09 -0.25 -0.09 -0.25 -0.09 -0.25 -0.09 -0.25 -0.09 -0.25 -0.08 -0.25 -0.08 -0.25 -0.08 -0.25 -0.08 -0.25 -0.08 -0.25 -0.08 -0.25 -0.08 -0.25 -0.07 -0.25 -0.07 -0.25 -0.07 -0.25 -0.07 -0.25 -0.07 -0.25 -0.07 -0.26 -0.06 -0.26 -0.06 -0.26 -0.06 -0.26 -0.06 -0.26 -0.06 -0.26 -0.06 -0.26 -0.06 -0.26 -0.05 -0.26 -0.05 -0.26 -0.05 -0.26 -0.05 -0.26 -0.05 -0.26 -0.05 -0.26 -0.04 -0.26 -0.04 -0.26 -0.04 -0.26 -0.04 -0.26 -0.04 -0.26 -0.04 -0.26 -0.04 -0.26 -0.03 -0.26 -0.03 -0.26 -0.03 -0.26 -0.03 -0.26 -0.03 -0.26 -0.03 -0.26 -0.02 -0.26 -0.02 -0.26 -0.02 -0.26 -0.02 -0.26 -0.02 -0.26 -0.02 -0.26 -0.01 -0.26 -0.01 -0.26 -0.01 -0.26 -0.01 -0.26 -0.01 -0.26 -0.01 -0.26 -0.01 -0.26 -0 -0.26 -0 -0.26 -0 -0.26 0 -0.26 0 -0.26 0 -0.26 0.01 -0.26 0.01 -0.26 0.01 -0.26 0.01 -0.26 0.01 -0.26 0.01 -0.26 0.01 -0.26 0.02 -0.26 0.02 -0.26 0.02 -0.26 0.02 -0.26 0.02 -0.26 0.02 -0.26 0.03 -0.26 0.03 -0.26 0.03 -0.26 0.03 -0.26 0.03 -0.26 0.03 -0.26 0.04 -0.26 0.04 -0.26 0.04 -0.26 0.04 -0.26 0.04 -0.26 0.04 -0.26 0.04 -0.26 0.05 -0.26 0.05 -0.26 0.05 -0.26 0.05 -0.26 0.05 -0.26 0.05 -0.26 0.06 -0.26 0.06 -0.26 0.06 -0.26 0.06 -0.26 0.06 -0.26 0.06 -0.26 0.06 -0.25 0.07 -0.26 0.07 -0.25 0.07 -0.25 0.07 -0.25 0.07 -0.25 0.07 -0.25 0.08 -0.25 0.08 -0.25 0.08 -0.25 0.08 -0.25 0.08 -0.25 0.08 -0.25 0.08 -0.25 0.09 -0.25 0.09 -0.25 0.09 -0.25 0.09 -0.25 0.09 -0.25 0.09 -0.25 0.1 -0.25 0.1 -0.25 0.1 -0.25 0.1 -0.25 0.1 -0.25 0.1 -0.24 0.11 -0.24 0.11 -0.24 0.11 -0.24 0.11 -0.24 0.11 -0.24 0.11 -0.24 0.11 -0.24 0.12 -0.24 0.12 -0.24 0.12 -0.24 0.12 -0.24 0.12 -0.24 0.12 -0.24 0.13 -0.24 0.13 -0.24 0.13 -0.24 0.13 -0.23 0.13 -0.23 0.13 -0.23 0.14 -0.23 0.14 -0.23 0.14 -0.23 0.14 -0.23 0.14 -0.23 0.14 -0.23 0.14 -0.23 0.15 -0.23 0.15 -0.23 0.15 -0.23 0.15 -0.23 0.15 -0.23 0.15 -0.22 0.16 -0.22 0.16 -0.22 0.16 -0.22 0.16 -0.22 0.16 -0.22 0.16 -0.22 0.16 -0.22 0.17 -0.22 0.17 -0.22 0.17 -0.22 0.17 -0.22 0.17 -0.21 0.17 -0.21 0.18 -0.21 0.18 -0.21 0.18 -0.21 0.18 -0.21 0.18 -0.21 0.18 -0.21 0.18 -0.21 0.19 -0.21 0.19 -0.21 0.19 -0.2 0.19 -0.2 0.19 -0.2 0.19 -0.2 0.2 -0.2 0.2 -0.2 0.2 1.27 1.27 0.19 -0.19 0.19 -0.19 0.19 -0.19 0.19 -0.19 0.2 -0.18 0.2 -0.18 0.2 -0.18 0.2 -0.18 0.2 -0.18 0.2 -0.18 0.2 -0.18 0.2 -0.17 0.2 -0.17 0.2 -0.17 0.2 -0.17 0.2 -0.17 0.21 -0.17 0.21 -0.17 0.21 -0.16 0.21 -0.16 0.21 -0.16 0.21 -0.16 0.21 -0.16 0.21 -0.16 0.21 -0.15 0.21 -0.15 0.21 -0.15 0.21 -0.15 0.22 -0.15 0.22 -0.15 0.22 -0.15 0.22 -0.14 0.22 -0.14 0.22 -0.14 0.22 -0.14 0.22 -0.14 0.22 -0.14 0.22 -0.14 0.22 -0.13 0.22 -0.13 0.22 -0.13 0.22 -0.13 0.22 -0.13 0.23 -0.13 0.23 -0.12 0.23 -0.12 0.23 -0.12 0.23 -0.12 0.23 -0.12 0.23 -0.12 0.23 -0.12 0.23 -0.11 0.23 -0.11 0.23 -0.11 0.23 -0.11 0.23 -0.11 0.23 -0.11 0.23 -0.11 0.23 -0.1 0.23 -0.1 0.23 -0.1 0.23 -0.1 0.24 -0.1 0.24 -0.1 0.24 -0.1 0.24 -0.09 0.24 -0.09 0.24 -0.09 0.24 -0.09 0.24 -0.09 0.24 -0.09 0.24 -0.08 0.24 -0.08 0.24 -0.08 0.24 -0.08 0.24 -0.08 0.24 -0.08 0.24 -0.08 0.24 -0.07 0.24 -0.07 0.24 -0.07 0.24 -0.07 0.24 -0.07 0.24 -0.07 0.24 -0.07 0.24 -0.06 0.24 -0.06 0.25 -0.06 0.25 -0.06 0.25 -0.06 0.25 -0.06 0.25 -0.05 0.25 -0.05 0.25 -0.05 0.25 -0.05 0.25 -0.05 0.25 -0.05 0.25 -0.05 0.25 -0.04 0.25 -0.04 0.25 -0.04 0.25 -0.04 0.25 -0.04 0.25 -0.04 0.25 -0.04 0.25 -0.03 0.25 -0.03 0.25 -0.03 0.25 -0.03 0.25 -0.03 0.25 -0.03 0.25 -0.02 0.25 -0.02 0.25 -0.02 0.25 -0.02 0.25 -0.02 0.25 -0.02 0.25 -0.02 0.25 -0.01 0.25 -0.01 0.25 -0.01 0.25 -0.01 0.25 -0.01 0.25 -0.01 0.25 -0.01 0.25 -0 0.25 -0 0.25 -0 0.25 0 0.25 0 0.25 0 0.25 0.01 0.25 0.01 0.25 0.01 0.25 0.01 0.25 0.01 0.25 0.01 0.25 0.01 0.25 0.02 0.25 0.02 0.25 0.02 0.25 0.02 0.25 0.02 0.25 0.02 0.25 0.02 0.25 0.03 0.25 0.03 0.25 0.03 0.25 0.03 0.25 0.03 0.25 0.03 0.25 0.04 0.25 0.04 0.25 0.04 0.25 0.04 0.25 0.04 0.25 0.04 0.25 0.04 0.25 0.05 0.25 0.05 0.25 0.05 0.25 0.05 0.25 0.05 0.25 0.05 0.25 0.05 0.25 0.06 0.25 0.06 0.25 0.06 0.24 0.06 0.25 0.06 0.24 0.06 0.24 0.07 0.24 0.07 0.24 0.07 0.24 0.07 0.24 0.07 0.24 0.07 0.24 0.07 0.24 0.08 0.24 0.08 0.24 0.08 0.24 0.08 0.24 0.08 0.24 0.08 0.24 0.08 0.24 0.09 0.24 0.09 0.24 0.09 0.24 0.09 0.24 0.09 0.24 0.09 0.24 0.1 0.24 0.1 0.24 0.1 0.23 0.1 0.23 0.1 0.23 0.1 0.23 0.1 0.23 0.11 0.23 0.11 0.23 0.11 0.23 0.11 0.23 0.11 0.23 0.11 0.23 0.11 0.23 0.12 0.23 0.12 0.23 0.12 0.23 0.12 0.23 0.12 0.23 0.12 0.23 0.12 0.23 0.13 0.22 0.13 0.22 0.13 0.22 0.13 0.22 0.13 0.22 0.13 0.22 0.14 0.22 0.14 0.22 0.14 0.22 0.14 0.22 0.14 0.22 0.14 0.22 0.14 0.22 0.15 0.22 0.15 0.22 0.15 0.21 0.15 0.21 0.15 0.21 0.15 0.21 0.15 0.21 0.16 0.21 0.16 0.21 0.16 0.21 0.16 0.21 0.16 0.21 0.16 0.21 0.17 0.21 0.17 0.2 0.17 0.2 0.17 0.2 0.17 0.2 0.17 0.2 0.17 0.2 0.18 0.2 0.18 0.2 0.18 0.2 0.18 0.2 0.18 0.2 0.18 0.2 0.18 0.19 0.19 0.19 0.19 0.19 0.19 0.19 0.19z"/>
  <g id="_2392298638848">
   <path class="fil2" d="M90.46 33.35c15.59,15.59 15.59,40.86 0,56.45 -15.59,15.59 -40.86,15.59 -56.45,0 -15.59,-15.59 -15.59,-40.86 0,-56.45 15.59,-15.59 40.86,-15.59 56.45,0z"/>
   <g>
    <g>
     <path class="fil3" d="M60.29 12.63c20.32,0.17 39,12.9 45.99,32.12 6.99,19.23 1.09,41.18 -14.54,54.36 -8.79,7.42 -19.99,11.33 -31.45,11.43 -1.92,0.02 -1.92,3 0,2.98 21.58,-0.18 41.17,-13.65 48.73,-33.94 7.62,-20.47 1.13,-44.32 -15.77,-58.14 -9.33,-7.62 -20.93,-11.7 -32.95,-11.8 -1.92,-0.02 -1.92,2.97 0,2.98z"/>
    </g>
    <path class="fil4" d="M51.64 111.41c0,-1.01 0.82,-1.83 1.83,-1.83 1.01,0 1.83,0.82 1.83,1.83 0,1.01 -0.82,1.83 -1.83,1.83 -1.01,0 -1.83,-0.82 -1.83,-1.83z"/>
   </g>
  </g>
 </g>
</svg>
