<?xml version="1.0" encoding="UTF-8"?>
<!DOCTYPE svg PUBLIC "-//W3C//DTD SVG 1.1//EN" "http://www.w3.org/Graphics/SVG/1.1/DTD/svg11.dtd">
<!-- Creator: CorelDRAW -->
<svg xmlns="http://www.w3.org/2000/svg" xml:space="preserve" width="3.13365in" height="3.13365in" version="1.1" style="shape-rendering:geometricPrecision; text-rendering:geometricPrecision; image-rendering:optimizeQuality; fill-rule:evenodd; clip-rule:evenodd"
viewBox="0 0 1635.55 1635.55"
 xmlns:xlink="http://www.w3.org/1999/xlink"
 xmlns:xodm="http://www.corel.com/coreldraw/odm/2003">
 <defs>
  <style type="text/css">
   <![CDATA[
    .fil0 {fill:none}
    .fil8 {fill:#6411E1;fill-rule:nonzero;fill-opacity:0.149020}
    .fil3 {fill:#8C1AA5;fill-rule:nonzero;fill-opacity:0.341176}
    .fil6 {fill:#7913B6;fill-rule:nonzero;fill-opacity:0.368627}
    .fil4 {fill:#C33177;fill-rule:nonzero;fill-opacity:0.431373}
    .fil1 {fill:url(#id0);fill-rule:nonzero}
    .fil2 {fill:url(#id1);fill-rule:nonzero}
    .fil9 {fill:url(#id2);fill-rule:nonzero}
    .fil11 {fill:url(#id3);fill-rule:nonzero}
    .fil10 {fill:url(#id4);fill-rule:nonzero}
    .fil7 {fill:url(#id5);fill-rule:nonzero}
    .fil12 {fill:url(#id6);fill-rule:nonzero}
    .fil5 {fill:url(#id7);fill-rule:nonzero}
   ]]>
  </style>
  <linearGradient id="id0" gradientUnits="userSpaceOnUse" x1="407.92" y1="817.77" x2="1505.1" y2="817.77">
   <stop offset="0" style="stop-opacity:1; stop-color:#4900DF"/>
   <stop offset="1" style="stop-opacity:1; stop-color:#E83F56"/>
  </linearGradient>
  <linearGradient id="id1" gradientUnits="userSpaceOnUse" x1="1145.27" y1="1838.55" x2="603.34" y2="185.3">
   <stop offset="0" style="stop-opacity:1; stop-color:#00CDFB"/>
   <stop offset="1" style="stop-opacity:1; stop-color:#0141CC"/>
  </linearGradient>
  <linearGradient id="id2" gradientUnits="userSpaceOnUse" xlink:href="#id1" x1="460.46" y1="1362" x2="137.41" y2="677.7">
  </linearGradient>
  <linearGradient id="id3" gradientUnits="userSpaceOnUse" xlink:href="#id0" x1="517.39" y1="596.96" x2="320.49" y2="261.95">
  </linearGradient>
  <linearGradient id="id4" gradientUnits="userSpaceOnUse" xlink:href="#id0" x1="1623.14" y1="1277.53" x2="1433.32" y2="990.09">
  </linearGradient>
  <linearGradient id="id5" gradientUnits="userSpaceOnUse" xlink:href="#id1" x1="1810.53" y1="1212.41" x2="1168.07" y2="183">
  </linearGradient>
  <linearGradient id="id6" gradientUnits="userSpaceOnUse" xlink:href="#id0" x1="530.64" y1="1617.11" x2="219.94" y2="1126.78">
  </linearGradient>
  <linearGradient id="id7" gradientUnits="userSpaceOnUse" xlink:href="#id1" x1="1105.02" y1="1011.71" x2="353.82" y2="37.5">
  </linearGradient>
 </defs>
 <g id="Layer_x0020_1">
  <metadata id="CorelCorpID_0Corel-Layer"/>
  <g id="_2394886123248">
   <rect class="fil0" x="-0" y="-0" width="1635.55" height="1635.55"/>
   <g>
    <path class="fil1" d="M407.92 504.03l0 627.5 10.42 0 0 -627.5 -7.81 -4.51zm-2.61 4.51l0 -3.01 2.61 -1.5 -2.61 4.51zm545.98 -318.2l-543.38 313.69 5.21 9.02 543.38 -313.69 0 -9.02zm-5.21 0l2.6 -1.5 2.6 1.5 -5.21 0zm391.98 223.27l-386.78 -223.27 -5.21 9.02 386.78 223.27 5.21 -9.02zm156.6 90.42l-156.6 -90.42 -5.21 9.02 156.6 90.42 7.81 -4.51zm-2.6 -4.51l2.6 1.5 0 3.01 -2.6 -4.51zm2.6 632.01l0 -627.5 -10.42 0 0 627.5 7.81 4.51zm2.61 -4.51l0 3.01 -2.61 1.5 2.61 -4.51zm-69.63 43.18l67.03 -38.67 -5.21 -9.02 -67.03 38.67 -0 0zm-471.14 284.04l476.35 -275.02 -5.21 -9.02 -476.35 275.02 0 9.02zm5.21 -0l-2.61 1.5 -2.6 -1.5 5.21 -0zm-331.74 -188.48l326.54 188.48 5.21 -9.02 -326.54 -188.48 -5.21 9.02zm-216.84 -125.21l216.84 125.21 5.21 -9.02 -216.84 -125.21 -7.81 4.51zm2.6 4.51l-2.6 -1.5 0 -3.01 2.6 4.51z"/>
    <g>
     <polygon class="fil2" points="1346.17,525.98 1346.17,1138.78 1280.69,1176.53 1168.24,1241.45 815.36,1445.18 513.68,1270.94 496.53,1261.09 369.58,1187.83 284.71,1138.78 284.71,525.98 529.39,384.6 718.46,275.44 815.36,219.5 1134.42,403.68 1193.17,437.58 1255.52,473.56 1312.75,506.58 1323.17,512.6 "/>
     <polygon class="fil3" points="529.33,440.24 529.33,384.62 718.39,275.44 766.52,303.25 766.52,440.24 647.98,508.78 "/>
     <polygon class="fil4" points="494.37,916.46 494.37,1115.78 369.58,1187.83 284.71,1138.78 284.71,838.15 321.65,816.75 "/>
     <polygon class="fil5" points="707.38,410.68 588.76,479.16 470.14,410.68 470.14,273.71 588.76,205.23 707.38,273.71 "/>
     <polygon class="fil6" points="1323.17,512.6 1323.17,830.54 1091.54,696.85 1091.54,428.44 1134.42,403.68 1193.17,437.58 1255.52,473.56 1312.75,506.58 "/>
     <g>
      <polygon class="fil7" points="1609.95,652.83 1377.55,787 1145.16,652.83 1145.16,384.48 1377.55,250.31 1609.95,384.48 "/>
      <polygon class="fil8" points="1527.94,605.48 1377.55,692.31 1227.16,605.48 1227.16,431.83 1377.55,345 1527.94,431.83 "/>
     </g>
     <g>
      <polygon class="fil9" points="441.5,1055.8 268.85,1155.48 96.2,1055.8 96.2,856.44 268.85,756.76 441.5,856.44 "/>
      <polygon class="fil8" points="375.22,1017.53 268.85,1078.95 162.48,1017.53 162.48,894.71 268.85,833.29 375.22,894.71 "/>
     </g>
     <polygon class="fil10" points="1536.17,1089.78 1476.33,1124.33 1416.49,1089.78 1416.49,1020.68 1476.33,986.13 1536.17,1020.68 "/>
     <polygon class="fil11" points="442.07,405.51 385.75,438.02 329.43,405.51 329.43,340.47 385.75,307.95 442.07,340.47 "/>
     <polygon class="fil12" points="378.82,1301.62 302.99,1345.4 227.16,1301.62 227.16,1214.06 302.99,1170.28 378.82,1214.06 "/>
    </g>
   </g>
  </g>
 </g>
</svg>
